<svg xmlns="http://www.w3.org/2000/svg" viewBox="0 0 769.44 525.21"><defs><style>.cls-1{fill:#23a1ff;}.cls-2{fill:#262626;}</style></defs><g id="Layer_1" data-name="Layer 1"><path class="cls-1" d="M124.8,91.05a5.34,5.34,0,0,1,.84-8c8.28-6.78,16.54-13.66,25.39-19.63,5.64-3.8,11.26-.7,16.12,3.08,1.06.83,2,1.82,3.5,3.19a26.31,26.31,0,0,1,12.69-18.37A52.1,52.1,0,0,1,204.5,44l.55,1.14c-3.42,1.83-6.71,4-10.3,5.41A32.65,32.65,0,0,0,181.51,60c-3.77,4.4-4.24,9-2.19,14.45,1.19-3.87,1.93-7.63,3.52-11a15.73,15.73,0,0,1,5.2-6.09c5.57-3.72,11.37-7.15,17.27-10.32a54.74,54.74,0,0,1,12.82-4.78h-7.27l-.22-1c3.36-1,6.73-2,10.09-3.09,1.29-.4,2.87-.53,3.78-1.38,9.13-8.44,20.51-11.5,32.26-13.63,4.74-.85,9.55-1.33,14.32-2,.21.47.41.94.61,1.41-8.66,4.9-17.09,10.28-26.06,14.52-6.4,3-11.15,6.65-11.81,12.34,1.15-1.33,1.8-2.49,2.78-3.16C240,44,243.17,40.71,246.86,40A52.88,52.88,0,0,0,267.1,30.8c4.27-3,8.77-5.72,13.22-8.47A31,31,0,0,1,302,17.91l-10.14-2.64-.26-.62c4.73-.88,9.45-2.36,14.2-2.5,9.2-.26,18.43.65,27.62.33,10.83-.37,21.68-1.06,32.41-2.47,14.6-1.93,29.08-4.84,43.89-2.52a86.13,86.13,0,0,1,10.7,2.32c-9.59,2.06-19,4.07-25.27,14.07a31.48,31.48,0,0,0,2.79-1.65,48.82,48.82,0,0,1,26.17-10c2.49-.22,5.07.72,7.61,1.08,4,.58,8.07,1.24,12.12,1.65,13.78,1.39,26.11,6.77,37.83,13a86.34,86.34,0,0,1-8.58,4.14,5.33,5.33,0,0,1-4.17-.66A38.82,38.82,0,0,1,463,26.3a21.53,21.53,0,0,0-16.17-6.63C454.74,22.4,460.8,26.28,463,34c2.11,7.3,1.13,14.57-1.11,22.69-4.23-4.36-7.7-8.79-12-12.13s-9.52-5.62-14.61-7.9c8.39,6.9,17,13.4,23.29,22.38a16,16,0,0,1,1.65,3.34,15,15,0,0,1,.52,2.5c-7,.6-13.94.58-20.6,1.92A215.41,215.41,0,0,0,413.52,74c-10.06,3.41-15.29,11.36-15.5,21.68-.21,9.92.73,19.9,1.63,29.81,1.13,12.5-3.09,21.23-14.08,27.28a44.69,44.69,0,0,1-8.87,3.94c-9.91,2.89-18.76,7.4-25.63,15.78-2.7-7-7.94-11.37-13.17-15.83-11.29-9.64-16.61-22.46-18.71-36.83a53.25,53.25,0,0,0-1-5.78c-3.45,17.37,3.44,31.1,15.24,43.08,1.57,1.6,3.23,3.12,4.85,4.67,7.49,7.12,10.4,15.91,8.25,25.88-2.92,13.49.76,24.85,10.57,34A303.1,303.1,0,0,0,381,241.38c7.88,6,16,11.55,21.21,20.26a103.74,103.74,0,0,1,4.44,9.5,24.6,24.6,0,0,0-7.54-19.21c-8.24-7.94-17.19-15.13-25.82-22.66-4.88-4.27-10.09-8.23-14.48-12.94-8.06-8.64-9.93-19-8-30.61,2.4-14.38,11.28-21.44,24.83-24.13,17.87-3.55,27.53-15.16,28-34.42a109.92,109.92,0,0,0-1.84-21.56c-1.81-10.29,1.26-18.47,9.06-25,10.06-8.4,22.16-11.42,34.84-11.57,10.07-.13,20.15,1.28,30.24,1.66,7.71.3,15.45.06,23.25-.17L474.86,66.7a21.13,21.13,0,0,0-3.33-.45c-3.58,0-4.48-1.68-3.73-5a9.45,9.45,0,0,0-.64-4.61A19.89,19.89,0,0,1,483,30.51a5.08,5.08,0,0,1,2.2-.17c7.41,2.44,15,4.58,22.15,7.56,9.45,3.91,17.42,10.13,24.45,17.57a6.86,6.86,0,0,0,3.65,2.13c14.51,1.94,27.47,7.79,39.75,15.45,2,1.22,4.26,1.89,6.34,2.94a52.27,52.27,0,0,1,6.17,3.44c5.62,3.86,10.89,8.32,16.79,11.71a83.32,83.32,0,0,1,20.36,16.26,8.19,8.19,0,0,0,3.23,2.38c16.12,5.18,27,16.49,35.74,30.3,1.51,2.39,2.77,4.93,4,7.07l-14.56-.73c-2.52-10.24-9.48-17.86-20.54-21.69,2.2,1.68,4.48,3.27,6.6,5.06,5.58,4.72,9.88,10.21,10.33,17.93a5.83,5.83,0,0,0,1,2.39c6.78,11.57,7.76,23.46,2.06,35.75a9.41,9.41,0,0,0-.42,1c0,.08.06.21.09.32,8.24-8.11,9-20.25,2.16-37.78,7.11-1.43,13,.9,18.16,5.37s8,10.12,6.44,17.29l7.3,4.39.36-.4-4.26-3.59c.77-6.46-.66-12.49-5.23-17.61.24-.27.49-.53.73-.79,3.16,2.35,6.55,4.45,9.45,7.09,12,10.87,19.15,24.69,24.36,39.75a18.43,18.43,0,0,0,3.65,5.73c6.25,7.18,9,16,11.66,24.8,3.62,12,6.2,24.15,5.72,36.78-.05,1.43-.31,2.84-.47,4.26l-1.23.2c-2.59-7.95-5.78-15.76-7.56-23.89-1.34-6.12-.53-12.69-1.32-19a81.74,81.74,0,0,0-3.87-15.42c.32,12.4.36,24.82,1.13,37.19.24,3.93,2.32,7.77,3.78,11.57a22.13,22.13,0,0,0,2.67,4.05c4.14,6.06,4,8.47-.66,13.82a102.07,102.07,0,0,1,4.89,9.16C734.62,300.88,732,310,722.76,317a28.67,28.67,0,0,0-3.23,2.54c-2.74,2.79-2.33,4.2,1.26,5.84a16.11,16.11,0,0,1,3.2,2.58c0,1.23,0,2.46.12,3.68.39,4.33,1.21,8.66,1.14,13-.08,5.91-1.36,11.36-7.91,14-1.17.46-1.88,3-2.06,4.71-.17,1.5.68,3.12,1.07,4.69,1,4-1.77,7.34-5.88,6.72a11.17,11.17,0,0,1-4.45-1.77c-6.18-4.16-12.8-7.19-19.66-8.25,1.48-8.38,2.94-16.62,4.4-24.86l-1.26-.23a48,48,0,0,0-1.34,5c-2.35,14.29-10.87,22.68-24.65,26.38-4.29,1.15-8.77,2.45-12.46,4.8-6,3.78-11.33,8.48-17,12.8l.57.88c3.27-2.09,6.88-3.81,9.76-6.36a45.61,45.61,0,0,1,21-10.79c5.48-1.17,10.95-2.38,16.38-3.76,7.14-1.82,13.29-.43,18.54,4.88,1.1,1.11,2.57,2.46,4,2.58,5.64.49,8.4,4.16,10.85,8.59,1.19,2.16,3.09,3.91,4.42,6a6.12,6.12,0,0,1,1.1,3.7c-1.07,8.58-4.91,15.12-13.3,18.77A59.5,59.5,0,0,0,696,420.16c-2.76,2-4.36,4.93-3.17,9.55,6.18-9.15,15-13.64,23.91-18.16,2.45-1.24,4.15-4.4,5.67-7,4.94-8.39,4.94-16-4-22a3.84,3.84,0,0,1-1-5.89c2.21-3,2.31-6.1,1.25-9.55-1-3.14-.34-5.69,2.92-7.58,3.87-2.25,5.95-6.12,6.58-10.44A31.09,31.09,0,0,0,723.91,328c.5-1.69.47-4,1.6-5,10.56-9.17,13.21-19.81,6.76-32.45-.09-.18,0-.46.06-.95,5.62.46,9.8,3.24,13,7.67,4.37,6.07,6.16,13.2,6.73,20.38,1,13.24.44,26.45-4.23,39.13-.89,2.41-2.26,4.65-3.62,7.4-1.46-5.81-2.33-11.16-4.16-16.16-2.8-7.69-6.33-10.46-10.77-9.54,12.22,9.56,11.91,22.57,9,35.64-1.53,6.79-5.21,13.09-8,19.57a68.59,68.59,0,0,0-2.91,6.33c4.45-8.87,13.74-15,14.84-25.67.41-4,2-6.22,5.76-7.88,4.86-2.16,6.59-6.91,7.36-11.88.48-3.05.68-6.13,1-9.26,9.54,10.92,7.12,44-4.32,54.67-.51-10.63-1.93-20.73-6.49-30.12.87,8.82,2,17.54,2.49,26.29a70.6,70.6,0,0,1-4.63,30.46,38.44,38.44,0,0,1-5.16,9.47c-5.78,7.29-2.87,15.05-2.1,22.77.48-8.65,0-17.46,6.18-25.14,5.74,6.06,6.08,12.93,4.68,20.49,5.26-5.89,5.13-15-.26-21.37-1.54-1.8-1.46-3-.63-5.13,2-5.08,4.07-10.32,4.63-15.66.68-6.53,5.39-10.41,7.8-15.71l1,0c.56,3.37,1.62,6.74,1.6,10.1a108.58,108.58,0,0,1-9.21,44c-2.47,5.54-6.87,9.34-11.74,12.79-5.28,3.73-10.32,7.81-15.55,11.63a10.46,10.46,0,0,1-4.31,2.05c-6.15.95-12.32,2.18-18.5,2.28-6.51.1-12.74,1-18.56,3.68-5.47,2.49-9.7,0-14-2.55-.8-.48-.81-2.29-1.47-4.38,5.86,2,9.84-.71,14.09-2.71a16.24,16.24,0,0,1,6.5-1.31c5.61-.12,11.24.36,16.84.09,8.95-.41,13.58-4.68,15.5-13.4.76-3.46,1.77-6.85,2.9-11.18a60.09,60.09,0,0,0-4.53,4.58A15.87,15.87,0,0,0,717,456c-4.6,11.35-13.1,12.59-22.58,11.18-4.68-.7-8.72-.2-12.52,2.1-5.86,3.56-11.61,4.73-18.45,2.43-3.08-1-7.28-.23-10.54.95-11.36,4.1-22.34,2.28-33.38-1-3.5-1.05-2-3.23-1.49-5.66,1,.46,2,.61,2.36,1.18,1.62,2.45,3.5,3.08,6.32,1.91.71-.3,2.07.94,3.26,1.54,2.89-1.89,6.15-4,9.41-6.12l-.33-1.06c-6.21,1.58-12.39,4.76-19.47.58l7.71-5c4.49-2.9,9-5.71,13.45-8.72,2.36-1.6,3.48-.33,3.47,1.66,0,2.16-1.09,4.29-1.36,6.48a26,26,0,0,0,.29,4.88c1.63-.22,3.66.08,4.83-.78,5.56-4.07,11.45-3.6,17-.86,3.81,1.87,6.29,1.19,8.27-1.9s4.18-3.14,7.49-2.18c7.71,2.24,15.1,1.26,21.52-4a14.66,14.66,0,0,0,1.91-20.6c0,3.36.55,6.91-.11,10.22-1.84,9.3-10.2,14.19-20,11.88a30,30,0,0,1-16.73-10.53c-6.42-7.82-9.79-15.9-6.45-26.24,1.24-3.86.74-8.42.38-12.61-.3-3.49.89-5,4.11-5.86,1.84-.5,3.41-2,5.1-3-1.74-.63-3.49-1.25-5.22-1.91-2.85-1.08-5.69-2.19-8.71-3.35.4,2.17.82,4.56,1.28,7,2.72,14.15-.89,26.75-9.68,37.88-9.69,12.24-21.55,21.75-36.29,27.38-5.28,2-10.5,2.85-15.81-.07-1.45-.8-4-2.54-2.8,1.95.53,1.91-.84,4.59-1.89,6.64-5.68,11.09-15.76,14.51-27.29,15.27-12.19.81-24.5.86-36.53,2.7-11.63,1.78-23,5.36-34.44,8.26a131.65,131.65,0,0,1-40,3.95,9.33,9.33,0,0,1-4.37-1.76c-4.94-3.38-9.64-7.12-14.68-10.32-3.18-2-6.82-3.32-10.25-4.94l-.48.89,18.76,17.19c-.71,2.86-3.48,5-6.5,5.58-5.18,1.05-10.68,2.11-15.82,1.46-16.93-2.15-33.66-1.15-50.31,1.83-7.45,1.34-14.62,4.29-22.08,5.47-20.52,3.25-39.78.41-56.44-13.28-1.15-.95-3.17-1.13-4.8-1.19-21.77-.85-41.86-6.77-59.06-20.47-5.59-4.46-10.16-10.2-15.23-15.31a16.55,16.55,0,0,0-3.33-2.84c-18.83-10.78-26.76-28.17-29.22-48.65A30.23,30.23,0,0,1,182.9,398a36.16,36.16,0,0,1,6.52-7.93c2.81-2.79,6-5.21,9.19-7.94,1.71.21,4.57,1.25,7.13.74,4.77-.93,6.5-3.25,6.06-9.22-.79-10.66,3.75-19,9.92-27,4.5-5.82,8.84-11.77,13.21-17.68,6.6-8.91,14-11.23,24.54-7.62,1.76.61,3.47,1.36,4.91,1.93,1.57-2.42,2.76-5.08,4.7-7s4.7-3.16,7.53-5c-1-.63-1.93-1.28-2.92-1.84-5.69-3.2-7.95-7.1-6.89-13.53,2.23-13.45-.11-26.21-4.44-38.94-3.47-10.21-6.14-20.69-9.89-30.95,2.05,9.84,3.65,19.79,6.26,29.47,3.19,11.8,5.27,23.67,4.21,35.83-.37,4.33-2.33,8.55-3.82,12.73a10.61,10.61,0,0,1-2.73,3.52c-2.72,2.7-6,4.43-9.8,3s-5.54-4.82-6.07-8.73a48.89,48.89,0,0,1,0-5.4c-3.19,3.64-5.77,6.72-8.49,9.67-5.92,6.43-7.6,6.36-15.62,3.18-13.17-5.22-17.6-16.42-19.83-28.71a95.22,95.22,0,0,1-1.05-23.07c1-14.79,2.54-29.57,4.43-44.29,1.46-11.37,2.32-12.43,8.93-21.8-8.42,6.15-17.17,6.75-26.37,1.87,14.26,16.73,13,36,9.68,55.42-1.37,8-3.42,15.82-5.24,23.71-1,4.13-1.2,8.2.82,12,4.56,8.7,3.7,16.31-4.08,23.08a53,53,0,0,0,5.53-2.35c4.43-2.47,8.91-2.26,13.3-.23,3.16,1.46,6.08,3.4,9.16,5,4.71,2.5,9.39,5,14.2,7.3,3.08,1.46,4.28,3.45,3.26,7.32-2,7.57-11.42,16.85-19.45,17.5,1.4-4.4,4.66-6.77,8.28-9s7.18-4.69,6.68-10.48c-1.76,1.91-2.92,4-4.69,4.9-6,3-9.8,8.12-14.25,12.82-5.77,6.08-14,7.85-22.12,8.94-11.55,1.54-23.21,3-34.42-1.23a102.59,102.59,0,0,0-25.32-6.26c-3.35-.34-6.71-.71-10.07-.87-14.52-.71-22.46-18.12-19-28.17,1.15-3.32,2.71-6.49,4.38-10.44a43.83,43.83,0,0,1-4.64-30.87c2.39-10.62,5.71-21,8.38-31.82C101,243.38,99,247,97.36,250.69a39.6,39.6,0,0,0-1.63,6.12c-.6,2.31-2.26,3.26-4.21,2.05-5.61-3.48-11.43-6.77-16.41-11-3.56-3-2.36-7.93-1.21-12,1.26-4.42,3-8.7,4.55-13a11,11,0,0,0,.7-3.57c-3.58,5.54-7.18,11.06-8,17.81-.71,5.69-1.1,5.62-6.54,6.63a15.5,15.5,0,0,1-14-3.7c-3-2.56-7-4-10.49-6l-.5.89c2.91,2,5.88,4,8.73,6.15,5.11,3.81,5.32,4.47,4.07,9.23l17.25-4L69.25,248c2.39,2.11,4.57,4.54,7.21,6.25A100.11,100.11,0,0,0,87.35,260a6.68,6.68,0,0,1,4,6.59c0,2.36-.8,4.72-.66,7.05.43,6.68,1.28,13.34,1.71,20,.27,4.18,1,8.68-.09,12.53-2.24,7.59-.95,14.51,1.67,21.51.29.79.56,1.58,1.17,3.28-3.94-1.26-7.3-2.08-10.45-3.39a58.29,58.29,0,0,1-19.38-12.92A266.76,266.76,0,0,0,37,289.77c-9.24-7-14.74-15-14.95-26.84-.24-13.73-1.26-27.48,1.92-41a69.49,69.49,0,0,0,1.88-16.48c0-16.06,7.91-28.29,22.7-35.34,2.76-1.32,3.84-2.65,3.85-5.77,0-12.18,5.65-20.85,16.9-25.84a10.26,10.26,0,0,0,3.3-3.11c1.54-1.9,2.91-3.93,4.35-5.91l.77.47a21.25,21.25,0,0,1-1,1.88C69.67,142.31,63.42,153.17,59,165.07c-5.62,15.08-1.76,28.09,7.88,40.06.74.91,1.53,1.78,2.86,3.33-9.92-2.56-19-5.5-28.32-1.23,12.74-1.15,24.43,3.31,36.66,7.07-3-3.67-5.76-6.86-8.35-10.17-11-14.13-12.84-29.19-5.08-45.54,7.62-16.07,17.18-30.67,30.37-42.71,1.08-1,3-2.17,4.09-1.83,2.84.87,4.26-.32,6-2.2,5.73-6.17,12.78-8.4,21.77-6-3.26-13.92,6.85-21.38,14.21-30.44C136.6,76.48,128.4,84.47,124.75,91,124.73,91,124.8,91.05,124.8,91.05Zm363.79,324.6c-4,10.7-8,21.35-11.82,32.11a16.22,16.22,0,0,1-7.46,9.35c-8.42,4.82-8.41,6.77-.2,12,.21.14.42.42.61.41,1.28-.05,3,.29,3.7-.39s.48-2.78-.17-3.51c-2.12-2.39-1.46-4.41.43-6.21s4.27-3.34,6.29-5.14a10.5,10.5,0,0,0,2.48-3.26,17.78,17.78,0,0,0,.71-3.64c2-8.75,1.94-18.1,8.17-25.6,1.78-2.15,0-5.35-2.86-6-.28-3.42,0-7-1-10.22-1.34-4.23-3.58-8.2-5.68-12.16-2.78-5.22-3.15-10.5-.63-15.8,3.19-6.72,7.4-12.82,13.41-17.28,7.37-5.47,15.47-7.93,24.56-4.16a39.86,39.86,0,0,0,6.46,1.88c16,3.67,31.94,2.79,47.88-.52,1.55-.32,4.41-.38,4.7.3,2,4.59,4,9.33,4.86,14.22.3,1.84-2.63,4.21-3.9,6.07,11.94-2.56,24.42-.08,37.13.51l-6.21-2.33c2.41-1.88,5.89-3.31,7.15-5.84,2.9-5.8,7.19-9.63,12.7-12.64,2.41-1.31,4.33-3.44,4.2-6.56-1.47,1.08-2.59,2.56-3.93,2.78-5.77,1-9.39,4.66-12.91,8.88a140.7,140.7,0,0,1-11,11.64c-2.34,2.23-14,2.16-16.46.11a8.18,8.18,0,0,1-2.17-3.38c-1.9-5.33-3.66-10.71-5.25-15.43,8.46-4.5,17.69-8.89,26.38-14.16a67.18,67.18,0,0,0,21.64-20.84c-1.66.95-2.65,2.6-4,3.83-21.21,19.13-46,29.89-74.56,31.85-10.51.72-21,1.16-31-3.16-10.5-4.57-20.9-9.38-31.32-14.13-3.76-1.71-7.45-3.56-11.17-5.35l-.46.85c1.54,1,3.06,2,4.63,3,2.24,1.34,4.72,2.36,6.73,4,4.58,3.68,4.79,9.75.38,13.24-6.44,5.11-13.1,9.93-20,15.12-5-3-10.3-6-15.48-9.2-7.11-4.43-14.92-6.17-22.95-4.47-12.9,2.73-25.75,5.83-38.37,9.61a33.1,33.1,0,0,1-19.07.5c-5.15-1.46-10.17-3.35-15.28-5-10.93-3.44-17.13-11.19-19.76-22-1.48-6-2.44-12.23-3.52-17.75-.82,4.92-1.46,10.5-2.74,15.94-2.54,10.73-8.78,14.47-19.66,12.38-8.46-1.62-15.54-5.88-22.1-11.21a19.52,19.52,0,0,1-7.49-12.55c-.62-4.4-.63-8.88-1-13.95a40.27,40.27,0,0,0-2.59,5c-2.85,8.35.56,15.2,5.74,21.3,7.54,8.88,16.19,16.23,29.6,17.72-2,2.45-3.09,4.65-4.86,5.86-9.51,6.5-19.48,10-30.81,4.23-4.67-2.36-9.61-4.17-14.44-6.24,3.49,3.64,7.42,6.48,11.11,9.62,6.36,5.39,7.78,12.71,3.94,19.83a5.94,5.94,0,0,1-2.83,2.69,35.15,35.15,0,0,0-19.75,16.91c-3.83,7.33-6.33,15.35-9.48,23-.52,1.27-1.07,3-2.1,3.49a122.21,122.21,0,0,1-12.18,4.73c-9.42,3.16-18.93,2.2-28.71.1,7,6.5,15.86,5.35,24.83,6.5-9.55,6.79-14.16,14.68-9.54,25.75,2.84,6.81,8.39,11,15,10.9-1.72-1.17-3.17-2.07-4.53-3.08-5.89-4.37-8.3-10.6-6.63-17,2.22-8.47,12.1-16.38,20.76-16.41.77,0,2,1.2,2.25,2.07.78,2.61,1,5.4,1.78,8,3.14,10.27,9.25,18.16,19,23.09-10.05-9-14.82-20.7-17.76-33.4a9.1,9.1,0,0,1,0-4.34c2.45-8.49,4.92-17,7.66-25.39,2.91-8.9,8.3-16,17-19.9,3.56-1.62,7.51-2.39,10.49-3.3,2.31-4.54,3.79-9.23,6.66-12.8C311,357.58,338,351.77,365,366.64c8.71,4.81,17.12,5.44,26.55,2.7,14-4.07,28.17-7.44,42.32-10.89a16.46,16.46,0,0,1,13,2.06c3.06,1.92,6.24,3.64,9.31,5.55,18.46,11.55,14.56,6.53,23.54,27.15.7,1.6,1.33,3.23,2,4.85Q485.12,406.85,488.59,415.65Zm-207,53.44c6.89,4.85,14.35,8.76,22.82,9.27a26,26,0,0,0,12.08-2.63c2.44-1.14,3.78-1.53,6.16-.16,11.35,6.49,23.37,10.56,36.74,9.14,15.37-1.64,24.67-10.36,26.92-25.25.11-.74.51-1.81,1.08-2.06,4.29-1.92,8.66-3.68,12.88-5.44,0,.74-.05,2.11,0,3.47.44,10.76,4.23,20,14.81,23.88a144.9,144.9,0,0,0,28.45,7.42c16.89,2.57,33.87.5,50.79-.9,14.6-1.21,27-7.35,37.89-16.95a107.61,107.61,0,0,0,23.78-31c.54-1,1.16-2,1.87-3.18,9.23,11.16,18.55,21.53,31.26,28-16.21-12.23-28.87-27.35-29.71-36,4.26,1.37,8.47,2.91,12.77,4.07,13.58,3.66,27.25,4.94,41,.64,7.91-2.48,13.4-7.54,15.78-15.62,2.33-7.87,1.58-15.69-.5-24-.71,5.69-1.13,10.86-2,15.95-2.56,14.46-9.91,21.53-24.36,22.1a116.37,116.37,0,0,1-25.63-1.71c-15.71-2.9-29.82-9.25-41.12-21.29A98.71,98.71,0,0,0,505,384.62a42.75,42.75,0,0,0-4.35-1.47l-.77,1.17a17.12,17.12,0,0,0,3.12,2.76c10.87,5.49,20,13.25,27.86,22.32a74.5,74.5,0,0,0,18.9,15.69c5.24,3.05,6,4.6,3.57,10.18-10.59,24-27.85,40.82-54,46.2a159.46,159.46,0,0,1-78.11-3.17c-9.14-2.69-14.45-8.34-16.16-17.58-3.1-16.74,6.55-37,21.51-45.06a38.28,38.28,0,0,0,5.76-3.44c1.08-.85,2.45-2.41,2.34-3.53-.63-6.34-1.66-12.64-2.55-19l-1.71.12c0,1.53-.05,3.07,0,4.6.43,12.26-5.81,20.52-17.7,23.28-5.82,1.35-11,1.14-15.71-3.76-6.61-6.93-13.86-13.27-20.85-19.84-4.29-4-8.59-8.05-12.64-11.84.33.65.8,1.76,1.4,2.79,4.89,8.43,11.59,15.24,19,21.42,5.27,4.39,10.55,8.8,15.4,13.63a18,18,0,0,1,4.47,8c1.94,7.65-2.92,18.06-10.21,23-4.14,2.79-8.67,4-13.49,2.2-5.11-1.94-10.45-3.63-15.06-6.45-14.35-8.76-29.77-15.11-45.35-21.11-11.67-4.5-23-9.36-30.47-20.21,1.8,3.43,3.47,7.25,6.37,9.38a87.89,87.89,0,0,0,17.86,10.58c16.46,6.85,33.18,13,48.34,22.65,5.43,3.46,11.51,5.89,17.3,8.79,1,.48,1.93.93,2.94,1.42-1.18,6.83-4.4,12-10,15.41a34.83,34.83,0,0,1-25.9,4.54c-13.6-2.85-24.09-11-33.86-20.33-2.08-2-4.06-4.09-6.08-6.14a3.29,3.29,0,0,0,.37,2.29c1.65,3.76,3.67,7.4,4.87,11.29,1.55,5.06-.58,7.84-5.73,8a39.48,39.48,0,0,1-8.55-.58C291.91,471.75,286.76,470.34,281.57,469.09ZM454.16,255l-.35-.58c-3,4-6.48,7.78-9,12.09a52.93,52.93,0,0,1-19,19.15c-8.65,5.16-17.89,3.28-27.87,3.07,1.3-1.12,1.87-1.57,2.39-2.08s.85-1,1.32-1.54c-.37-.16-.52-.28-.58-.25-.74.45-1.47.93-2.21,1.38-8.62,5.28-17.39,6.52-26.41.94-4.24-2.62-8.37-5.45-12.78-7.76s-8.86-5-13.6-5.87a45.74,45.74,0,0,0-36.69,9c-6.86,5.27-12.66,11.93-18.87,18a47.2,47.2,0,0,0-3.54,4.48c2.67-2.41,4.81-4.31,6.91-6.26,10.31-9.61,21.07-18.4,35.67-20.63,11.27-1.71,21.72-.65,31.11,6.85,4.08,3.25,9.23,5.17,13.92,7.65a23.47,23.47,0,0,0,2.77,1c-3.76,7.93-5.64,15.88-4.94,24.28.49,5.89,1.69,11.63,5.28,16.52,2.83,3.85,6.26,4.79,9.89,2.88-4.11-1.72-6.1-5.05-7.2-9.05a37.92,37.92,0,0,1,2.83-28c2.14-4.3,5.43-6.78,10.15-7.17a32,32,0,0,1,7.83.1c8.15,1.37,16.26,3,24.08,4.47-1.59-6.46-.51-8.31,6.44-12.06,18.15-9.82,37.84-15.25,57.61-20.47,7.57-2,15.27-3.51,23.12-5.28-5.07-1.68-6.59-5.22-6.12-10.24s-1.52-9.21-5.5-12.8a124.3,124.3,0,0,1-13.59-14.41c-18.19-22.66-23.37-49.05-21.47-77.33.34-5.14,1.07-10.26,1.62-15.39a86.1,86.1,0,0,0-3,13.83c-3.77,27.06.84,52.35,15.95,75.45a49.79,49.79,0,0,1,4.78,9.26c1.2,3.06,1.48,6.19-1.45,8.91-4.8,4.46-4.73,5-.72,10.18.38.49.74,1,1.1,1.51,4.92,7.18,3.28,12-5,14.72-7.82,2.55-15.65,5.05-23.44,7.68-2.88,1-5.67,2.24-8.5,3.37l-.92-.67Q450.2,264.5,454.16,255Zm95.31-13.08c12.26,5.71,24.92,9.21,38.51,4.62,6.13-2.08,12.31-4,18.48-6,9-2.83,11.8-1.1,12.82,8.32a12.3,12.3,0,0,1-1.49,7.12c-4.94,8.34-10.66,15.77-18.52,22.08-8.2,6.59-16.49,6.39-25.64,5.55-7.54-.69-15.14-1.54-22.7,1.08-7.09-8.86-15.1-16.59-26.31-20a17.65,17.65,0,0,0,3.21,2.52c7.86,5.17,15.21,10.95,20.48,18.88,1.34,2,2.7,2.43,4.91,2.25,6.59-.53,13.21-1.29,19.79-1.1,8.47.24,16.68.05,24.08-5,9.15,8.86,11.54,20.18,13.37,31.76.59-11.77-1.68-22.73-9.36-32.31,8.17-6.07,14-13.72,18.87-22.27,2.28-4,5.76-4.52,8.36-.78a49.45,49.45,0,0,1,6.92,13.86c1.94,6.56,2.68,13.48,4,20.75a16.09,16.09,0,0,0,.55-2.39c.81-12.68-1.73-24.52-8.75-35.27-4.5-6.9-3.52-11.3,2.89-16.66a157.89,157.89,0,0,0,13.62-12.75,31,31,0,0,0,8.06-15.51c-1.32,1.84-2,2.89-2.75,3.83-5.21,6.19-10.27,12.51-15.74,18.45a26.31,26.31,0,0,1-7.91,5.52,6,6,0,0,1-5.14-.52c-.81-.58-.53-3.07-.31-4.63.35-2.43,1.16-4.79,1.58-7.21.66-3.75.56-7.74,1.84-11.25a49,49,0,0,1,16.9-23c-12.86,2.16-17.08,12.6-22.27,22.8-2.48-7.25-4.73-14.57-6.54-22-1.52-6.24-3.65-11.92-9.3-15.13,2.14-4.34,4.55-8.42,6.22-12.79,3.35-8.81,2.27-17.16-3.83-24.57-2.95-3.57-6.13-4.77-10-3.87,8.29,3.72,11.89,10.59,12.63,19,.76,8.76-3.45,15.54-10.24,21.08,7.2,6.07,11.75,13.18,12.32,22.57.15,2.51,1.56,5,2.44,7.42,2,5.49,4.22,10.9,5.9,16.49a12.84,12.84,0,0,1-3.16,12.85,6.94,6.94,0,0,1-3.76,1.79c-7.34,1.22-14.84,1.75-22,3.49-10.48,2.53-20.83,5.2-31.71,3.23C557,243.5,553.23,242.66,549.47,241.9ZM152.66,176.23c-6.06,2.81-12.68,4.53-17.43,8.49s-8.63,4.49-13.77,2.94c-.24-.07-.48-.14-.72-.19-11.18-2.16-21.15-.39-28.61,9.07-4.43,5.63-8.33,11.58-10.23,18.61,5.21-6.25,10.11-12.7,15.26-19,7.72-9.38,20.39-10.66,30.65-2.88-7.48,7.75-7.29,16.86-4.33,26.43.82,2.65.06,4.71-2.69,6.19-2.09,1.12-3.75,3-5.61,4.61l.59.79h14.17c1.15,8.68,2.21,16.63,3.15,23.72,1-6.47,2.26-13.53,3.17-20.65.35-2.67,1.82-3.75,4-4.83,4.77-2.41,9.51-4.91,14.07-7.68a8.62,8.62,0,0,0,4.15-8.43c-4.66,8.18-12.9,10.68-20.89,13.55-4.61,1.66-6.53,1-8.91-3.23a21.39,21.39,0,0,1-2.07-5.56c-1.54-6.66-.07-13.13,1.58-19.55a18.61,18.61,0,0,1,9.08-11.85c8.72-5,17.8-7.9,28.55-2.84-7.55-7.79-7.75-7.75-9.68-18.08-2-10.88-6.58-20.77-11-30.73l-1,.28q2.6,9.64,5.17,19.27c-4.75-5.63-10.83-7-17.44-6.34a54.33,54.33,0,0,0-12.39,2.6c-10.09,3.56-20,7.69-30.06,11.3-4.25,1.52-8.76,2.3-13.15,3.42,11.09,1,21.13-2.44,31.23-6.28,6.45-2.45,13.28-5,20-5.3C145.55,153.3,150.5,159.94,152.66,176.23ZM352.15,135l9.12-1.57c-2.08-9.78-4.43-19-5.91-28.26-1.77-11.11-1.56-22.7-9.8-32.33A57.5,57.5,0,0,1,356.69,72c5.42.16,10.18-1.1,13.58-5.6a68.59,68.59,0,0,0,3.81-6c4.38-7.26,10.46-11.91,19.14-12.74a73.2,73.2,0,0,0,9.24-1.35c3.22-.73,5.43-2.71,6.11-6.82A21.19,21.19,0,0,1,393,45.17a24.28,24.28,0,0,0-4.46.5c-7.24,1-13.19,3.33-15.94,11.33-2.54,7.39-7.91,11.64-16.54,11.34-3.8-.13-7.65,1.8-11.51,2.65a5.58,5.58,0,0,1-3.32-.11c-6.83-3.1-13.93-4.51-21.08-2a161.27,161.27,0,0,0-17.2,7.86,5.93,5.93,0,0,1-6.81-.4,34.3,34.3,0,0,0-11-5.1c-6.18-1.34-12.59-1.6-18.9-2.4-3.25-.41-6.48-1-9.72-1.49l-.33,1.35c4,1.06,7.93,2.43,12,3.12,6.14,1,12.4,1.38,18.54,2.44C296,75.88,301.73,84.56,295,94.18c-5.56,7.95-10.86,16.08-16.32,24.11-2,2.94-3.38,2.69-5.58-.31a148.84,148.84,0,0,0-9.33-11.63c-1.7-1.89-4.05-3.21-6.11-4.79l-.61.74c8.19,7,14.32,15.22,17.09,25.75.69,2.62,3.52,3.09,5.52.82,1.26-1.44,2.51-3.45,2.57-5.25.23-7.19,4.38-12.36,8.56-17.44a50.92,50.92,0,0,0,10.05-18.61A19.63,19.63,0,0,1,315,73.43,85.14,85.14,0,0,1,327.79,71c12.44-1.65,23.44,10.71,23.75,20.51a148,148,0,0,0,2.13,19.33c1.26,7.71,3.54,15.38-1.59,22.61C351.92,133.67,352.1,134.15,352.15,135Zm-65.9,108a10.43,10.43,0,0,1-.77-2.57c.1-5.22-.14-10.48.53-15.63,1.22-9.42,3-18.77.22-28.18-2.91-9.85-8.84-16.62-19.42-18.38a5.65,5.65,0,0,1-5.18-5.87,54.26,54.26,0,0,1,.29-9.71c1-6.8,2.36-13.55,3.64-20.73-4.38,8.48-9.26,16-20.75,14.77,2.85,2.35,5.37,4.14,7.54,6.29,5.25,5.19,5.64,11.19,1.3,17.16a16.3,16.3,0,0,1-10.18,6.44c-1,.22-2,.5-3.15.81,7.36,7.3,8.49,16.79,11.22,25.64.22-2.41.15-4.77.23-7.13.21-6.06,1.36-11.91,4.58-17.15,3.63-5.9,9.37-7.75,15.84-5.25,6.67,2.58,9.59,8.1,11,14.56,2.27,10.53,1.28,21.1-.39,31.6-1.59,10-.81,19.54,4.14,28.66a37.43,37.43,0,0,1,3.76,11.27c1,5.68,1.2,11.48,1.75,17.23a11,11,0,0,0,1.25-5.07c-.75-7.16-1.09-14.46-2.88-21.36-1.68-6.45-4.29-12.48-.25-18.85a2.57,2.57,0,0,0,.17-1.1c.85-8.84,5.95-14.28,14-17.16,4.57-1.64,9.3-2.79,13.88-4.4,3.66-1.29,7.09-3.09,9.07-6.35-3.39,1.59-6.75,3.49-10.33,4.76-4.92,1.75-10,3.13-15,4.47a18,18,0,0,0-12.83,11.49C288.35,236.18,287.48,239.25,286.25,243Zm227.08-51.3a7,7,0,0,0,.87.59c18,8.93,24.6,23.82,20.86,43.34-1,5.18-2.34,10.3-3.53,15.44a14.77,14.77,0,0,0,2-3.57c2.48-6.64,4.76-13.36,7.42-19.93s7.15-11,15.06-10.36c3.06.26,5.24-1.3,6.46-4.13a49.16,49.16,0,0,0,2-4.81c1.24-4.07,2.9-7.69,7.37-9.2,3.74-1.26,7.43-2.68,11.07-4-.09-.29-.94-1.54-.64-2.37,1.79-4.92-.61-9-2.29-13.25-2.38-6-5.13-12-4.37-19.3-4,4.92-3.67,9.41-1.31,14.16a81.82,81.82,0,0,1,4.93,11.25c1.8,5.64,0,8.56-5.67,9.93-6.48,1.56-10.9,5.39-13.17,11.53a8.32,8.32,0,0,1-5.74,5.34,14.94,14.94,0,0,1-18.82-7.86A23.34,23.34,0,0,1,534.6,186C527.74,190.43,520.9,191.77,513.33,191.66Zm180.5-7c.16.43.3.85.47,1.27,3.72,9.08,8.54,17.89,10.84,27.32s2,19.29,2.84,29a12,12,0,0,1-.29,3c-2.62,14.56-9.32,27.54-16,40.5-3.43,6.7-8,12.69-14.61,16.67-4.81,2.87-9.68,5.65-14.55,8.43-3.81,2.18-7.7,3.16-12.15,1.78-3-.94-6.33-1.14-9.51-1.66,7.62,3.71,15.45,3.72,23.25,1.12,13.13-4.37,22.86-12.9,29.62-24.9,1.16-2.05,2.18-3.84,5.14-2.9s4.58,2.53,4.61,5.55c0,2-.52,4-.37,6,.19,2.41.21,5.2,1.43,7.11,2.34,3.66,5.47,6.81,8.27,10.18-2-7.1-4.4-13.87-4.44-21.44,0-3.61.56-6.21,2.75-8.67a46,46,0,0,1,3.87-3.49c4.19-3.74,4.81-9.52,1-15,1.67,9.93-7.14,13-10.88,19.21l-7.86-2.19c7.77-15.53,13.58-31.19,12.54-49.23C708.79,214.61,706.52,198.07,693.83,184.65ZM526.75,64.44c.42,1.13.82,2.27,1.25,3.39a87.62,87.62,0,0,1,6,26.48c.85,13.78-6.55,22.06-20.39,22.54a61,61,0,0,1-9-.13,16.36,16.36,0,0,1-5.45-2c-4-2-7.64-4.74-11.77-6.31-2.4-.92-5.43-.17-8.18-.17v1c2.16.49,4.36.89,6.49,1.52a40.73,40.73,0,0,1,6.28,2.32c6.68,3.31,9,8.8,5.65,15.46-2.43,4.81-6.26,8.91-9.32,13.42-2.85,4.2-6,8.31-8.1,12.87-1.64,3.48-2,7.6-2.85,11.43l1.4.47c2.59-12.55,10.45-21.81,18.37-31.17,2.92-3.45,4.54-8,7-12.53,4.53-1.36,10.42-2.37,15.61-4.86,7.82-3.75,15.76-4.09,24-3.08,3.55.44,7.08,1,10.63,1.58a113,113,0,0,0-15.76-5.85c-2.8-.84-3.47-2.09-2.46-4.93a26.36,26.36,0,0,0,1.7-8.69C537.81,85.21,532.63,74.69,526.75,64.44ZM121.84,306.91l.06,1.74c8-.18,16-.39,24.06-.54a19.39,19.39,0,0,1,5.56.28,102.87,102.87,0,0,1,12.66,4.26c6.85,2.94,12.39,2.64,16.6-1.41-10,1.53-14.66.66-22.15-6.41-4.53-4.27-8.22-9.59-11.61-14.87-3-4.68-5-10-7.65-14.92-1.47-2.67-3.5-5-7.67-5.39,3,5.92,5.88,11.26,8.46,16.73a44.14,44.14,0,0,1,3.4,9.43c1.18,5.59-1.09,8.44-6.67,9.16ZM243.08,482.42c9.43,10.37,27.47,20,45.2,12.9,11.39-4.54,23.4-5.05,34.78,1a21.69,21.69,0,0,0,18.74,1,10.63,10.63,0,0,0,6.4-6.25,9.8,9.8,0,0,0-2.87,1.2c-7.39,4.15-14.47,4.85-22.09-.16-10.66-7-22.31-6.92-33.61-1.8-11.94,5.42-23.3,4-34.62-1.23C250.9,487.12,247.05,484.64,243.08,482.42ZM664.44,339.19c-3.35,3.81-7.59,4.38-12.26,3.52-1.35-.25-2.71-.43-4.06-.69-6.19-1.15-9.71.7-11.23,6.77a107.15,107.15,0,0,0-2.09,14,17.65,17.65,0,0,1-10.55,14.78c-1.87.9-3.87,1.53-6,2.34,5.8,3.6,11.34,2.83,15.41-2.18a31.75,31.75,0,0,0,6.8-17.9c.54-6.72,1.78-8.33,8.33-10,1.45-.36,2.94-.55,4.4-.87C658.7,347.81,662.79,345,664.44,339.19ZM226.19,94c-7.15,2-12.29,6.11-14.43,13.29-.67,2.24-.85,4.62-1.4,6.9s-1.91,3.35-4.5,3.57c-2.17.18-4.79,1-6.23,2.45a57,57,0,0,0-8.5,10.85c-5.26,9.08-5.24,18.47-.52,27.8-2.76-15.51,1.36-27.51,11.78-34.15,1.91,1.46,3.8,2.83,5.59,4.3,2.66,2.18,5.54,4.18,7.78,6.74s3.69,5.93,5.88,8.63c1.79,2.2,4.16,3.92,6.28,5.85-5.33-11.27-10.52-22.52-24-26.55,1.28-.84,1.75-1.37,2.31-1.49,5.9-1.22,7.89-5.28,8.28-10.81C215,103.36,218.77,97.39,226.19,94ZM474.36,296.13c-5.09,4.29-9.54,8.71-14.63,12.16-5.94,4-12.1,1-18.16-1.05,13.58,10.05,24.22,22,27.89,39.76,2.18-7.35.22-13.43-2-19.33-2.76-7.28-2-14.14,1.39-20.9C470.6,303.27,472.44,299.81,474.36,296.13ZM333.19,39.68c-10.05,5.78-19.91,8.71-30.62,2.68a61.13,61.13,0,0,0-7-3.49c-3-1.2-6-2.86-9.12-3-14.85-.58-28.29,4.86-41.33,11.08-2.47,1.17-3.76,4.81-6,7.91,4.64-3.34,8.07-7.11,12.3-8.59,9.84-3.44,20-6,30.15-8.48a16.44,16.44,0,0,1,15.07,3.6c2.67,2.23,5.19,4.83,8.21,6.42a19.58,19.58,0,0,0,8.78,2.07c3.3,0,6.6-1.11,9.9-1.74C328.28,47.23,331.41,44.38,333.19,39.68ZM549.68,62.19l-.59.79c3.27,3.24,6.41,6.62,9.82,9.71,6.47,5.85,12.94,11.73,19.68,17.26,13.14,10.78,16.48,22.27,10.69,38.14l-5.64,15.5c3.54-5.24,6.38-10.76,9.41-16.2S596.48,116,595.23,110A32.48,32.48,0,0,0,585,92.07C573.48,81.85,561.49,72.12,549.68,62.19Zm-17,65.67-1.45.71c4.44,8.22,4.92,17.05,4,26.28,8.63,1.52,13.45,6.92,15.34,15.68,1.07-1.81,1.65-2.91,2.34-3.93s1.68-2.17,2.48-3.27c2.91-4,1.91-6.54-3-7.67a13,13,0,0,0-2.94-.49c-3.83.05-6-2-7.15-5.43-1.09-3.18-1.83-6.5-3.21-9.55C537.22,136,534.85,132,532.68,127.86ZM676.32,416.47l.74.39a27.08,27.08,0,0,1,2.78-3.4c3.7-3.25,7.21-6.86,11.36-9.43s8.18-1.32,11.49,2.13a11.92,11.92,0,0,1,1.4,2.38l.86-.86c-.54-6.28-4.88-9.62-10.13-11.58-5.54-2.06-9.21-5.19-9.76-11.31,0-.09-.41-.13-1.8-.55.37,3.4.2,6.49,1.13,9.21a8.44,8.44,0,0,1-.58,7.37C681.11,405.94,678.8,411.24,676.32,416.47Zm-436.6,3.21c-.33-1.61-.51-2.66-.78-3.69-1.93-7.42-2.62-14.61,2-21.55a10.36,10.36,0,0,0,1.19-6.77c-.4-2.59.72-3.59,2.63-4a60.84,60.84,0,0,1,7.76-.9c5.85-.45,10.68-2.39,12.76-5.39-8,2.67-15.9,4.84-24,1.54-3.07,8.18-8,9.32-21.17,4.75,4.34,3.73,8.46,5.86,13.57,5.67,4.33-.17,4.94.84,4,5a81.65,81.65,0,0,0-2.1,13.94C235.42,412.22,236.07,416.27,239.72,419.68ZM658.63,263.61c1.8,2.27,3.76,5.3,6.29,7.73,1.64,1.57,3.06-.09,2.63-1.78-1.76-6.8,2.28-11.58,5.27-16.85,6.39-11.28,9.32-23.37,7.87-36.37a8,8,0,0,0-.3,2.17,59.08,59.08,0,0,1-14.18,38C664.23,258.89,661.69,260.79,658.63,263.61Zm-233.32-78.3c-.29-.6-.57-1.2-.86-1.81-4,1-8.11,1.8-12.07,3-4.31,1.3-4.68,1.35-5.52-3-1-5.14-4.55-7.59-9.4-9.77,8.09,9.48,9.3,14.75,6.68,26.45a84.26,84.26,0,0,0-1.06,8.57l1,.43C407.52,198,410.53,186.51,425.31,185.31Zm255.53,9.58c3.81-10.35,3.65-15.23-1.09-20.67,3.77,8.2.91,14.84-3,21.19,7,5.93,13.16,12,14.54,21.35A1.83,1.83,0,0,0,692,218c3,1.69,6.11,3.31,9.17,4.95l1.18-1.24a38.81,38.81,0,0,0-4.14-2.49c-4-1.85-5.15-5.3-6.1-9.32C690.59,203.35,686.28,198.52,680.84,194.89ZM187,418.25c.63,13.25,8.1,24.25,23.05,34.22-.26,2.75-.52,5.46-.83,8.68l6.95-10.39C200.63,445.3,191.6,433.79,187,418.25Zm117.64-389c2.27-1.48,3.9-2.16,5-3.33,5.29-5.65,11.71-5.74,18.61-4.25,7.39,1.59,14.81,3,23.19,4.71-12.34-7.9-24.53-10.49-37.73-6.07A13.31,13.31,0,0,0,304.61,29.24Zm41.71-11.86.53,1.07c5-1,9.9-2.25,14.91-3,11.47-1.84,22.74-2.26,32.73,7.16-2.38-6.2-6.72-8.73-11.83-9.74a64.22,64.22,0,0,0-29.2,1.26C351,14.74,348.69,16.25,346.32,17.38ZM72.52,299.69c.06-.53.25-.95.13-1.23-2.36-5.43-4.57-10.94-7.27-16.19-.55-1.06-3.37-2-4.45-1.51-1.75.81-3.38,2.74-1.85,5.2,2.18,3.47,4.27,7,6.64,10.34C67.29,298.52,69.31,300.39,72.52,299.69Zm7.42-155L81,146.22c4.54-7.36,12.06-7.85,19.25-9.19,1.66-.31,3.81-.83,4.62-2a10.49,10.49,0,0,0,1.46-5.94c0-1.08-1.63-2.12-2.53-3.18-1.39,1.29-2.79,2.58-4.16,3.89-.18.16-.22.46-.38.63-1.57,1.6-2.94,3.49-4.77,4.7-2.25,1.48-5.06,2.13-7.31,3.61A83.58,83.58,0,0,0,79.94,144.68ZM295.19,255.62c3,5.75,5.73,11,8.5,16.32a1.45,1.45,0,0,0,.82.69c3.24.76,6.46,1.64,9.74,2.1.86.12,1.91-1.09,2.16-1.25-3.32-2.16-6.56-3.86-9.29-6.17s-4.68-5.15-7.12-7.64A61.65,61.65,0,0,0,295.19,255.62Zm421.4,192.43c5.2,0,9.2-2.43,11.19-6.82,3.42-7.56,6.27-15.38,9.12-23.19.58-1.6.08-3.59.08-5.35-2.62,6.57-5.43,12.77-7.57,19.2C727.07,438.89,723.74,444.84,716.59,448.05Zm-75-299.2c-4.81-7.42-9.09-14.62-14-21.33-2.14-2.91-5.61-4.83-8.48-7.2l-.75.83A30.52,30.52,0,0,1,629.4,137.6a4.59,4.59,0,0,0,1.42,2C634.25,142.6,637.73,145.56,641.55,148.85ZM417.9,31.54c-8.95-8.47-20-4.49-30.17-5.66l-.18,1.06Zm6.25,48.68c7.08,3.23,13.57,5.82,19.69,9.09S455.46,96.43,461,99.87C454.35,90.87,439.51,82.75,424.15,80.22Zm-193-28.64c-11.75-1.67-21.89,6.47-34.36,3.61,2.68,3.57,5.56,3.49,8.34,2.84C213.84,56,222.5,53.75,231.17,51.58Zm357.52,149,6.79,13.8C597.57,208,595,203,588.69,200.58Zm69.95-9.28L673,193.92C670.24,190.06,664.89,189.07,658.64,191.3ZM228.56,186l-.16-1.23-10.6,1.87.18,1ZM187,370.76c-9.72-.54-19.46-.87-29.17-1.51-8.68-.57-16.83-2.65-22.47-10.06-2.64-3.47-5.92-4.05-10-3.05a13.73,13.73,0,0,1-13.47-3.69,72.77,72.77,0,0,1-7.28-8.49c-2-2.74-4.3-4.3-7.86-4a33,33,0,0,1-6.34-.34c-4.52-.49-8.68-1.34-11.59-5.66-2-2.94-8.16-2-9.64,1.07-3.58,7.48-3.77,21.33,6.66,28.1,6.73,4.37,14.18,6.14,21.9,6.83,9.06.82,18.18.92,27.25,1.59,6.82.5,13.61,2,20.41,2,16.65,0,33.33-2,50.6,1.08C193.33,371.46,190.19,370.94,187,370.76ZM64.1,318.38c-11-9.86-21.91-19.95-33.26-29.47-5.35-4.49-9.4-9.47-10-16.39-.91-10.52-1.22-21.1-1.79-31.66-.07-1.35-.13-2.71-.22-4.63-7.4,7.12-12.09,17.93-12,27.88,0,9.6,1.92,18.44,10.27,24.85,4.52,3.47,8.43,7.77,12.48,11.83,2.8,2.81,5.82,5.56,8,8.84,5.23,8,17.82,13,27.65,10.15A10.36,10.36,0,0,0,64.1,318.38ZM63,139.33c1.77-.88,4.62-1.38,5.1-2.72,2.08-5.84,7.44-9,10.5-13.73,3.48-5.42,7.47-9.75,13.42-11.69a90,90,0,0,0,16.65-6.88c4-2.25,8.87-2.94,12.65-4.11,1.24-3.33,2.33-6.27,3.41-9.22,0,0,0,.07,0,.06-1.32-.68-3.18-1-3.82-2.08-1.61-2.7-3.54-2.39-5.58-1.12-7.73,4.75-15.69,9.2-23,14.55C81.81,110.14,72.07,119,65.62,130.65c-1.43,2.6-1.7,5.83-2.51,8.77ZM206.48,361.26c5.28-6.75,10.22-13.76,15.51-21l-50,16.75c13.44,6.05,24.77.37,36.46-4.5l-8.58,7.94C202.23,362.44,204.64,363.61,206.48,361.26Zm-143-21.38c1.2-3.67.58-5.86-1.84-6.89-10.93,2.69-20.41-.44-30.82-2.45,9.13,9.57,17.72,18.55,31.33,20.53C62.63,346.72,62.45,343.1,63.5,339.88ZM21,303.13c1.8,6.17,3.58,12.35,5.4,18.52,1.56,5.32,5.71,7.39,10.7,7.77,7.26.56,14.55.69,22.44,1-2-1.48-3.52-3.2-5.46-4-6-2.41-12.13-4.33-18.1-6.72-2.18-.87-4.58-2.13-5.93-3.91-3.13-4.11-5.67-8.65-8.45-13Zm9-127.25a94.59,94.59,0,0,0-8,18.3c-2.71,9-2,18.77-6.14,27.5a9.15,9.15,0,0,0-.61,3.67A14.06,14.06,0,0,0,19,236.1c-.08-7.5.49-13.91,4.3-19.55a3.61,3.61,0,0,0,.22-2.14c-1.81-18.4,4.53-33.62,18.16-46.55C36.35,169,32.26,171.72,30,175.88Zm33.15-36.46c-11.31,3.1-21.22,17.27-19.68,27.91h8.35c-3.76-9.05-1.39-16.72,5.56-23.2,1.81-1.69,3.78-3.2,5.68-4.8ZM729.2,283.25,741,288c-1.13-5.65-4.59-8.94-8.8-12.13C731,278.72,730.11,281,729.2,283.25ZM81.54,125.54,94.93,114C88.18,114.25,81.92,119.85,81.54,125.54Z"/><path class="cls-2" d="M488.59,415.65q-3.48-8.79-6.95-17.59c-.64-1.62-1.27-3.25-2-4.85-9-20.62-5.08-15.6-23.54-27.15-3.07-1.91-6.25-3.63-9.31-5.55a16.46,16.46,0,0,0-13-2.06c-14.15,3.45-28.34,6.82-42.32,10.89-9.43,2.74-17.84,2.11-26.55-2.7-26.94-14.87-54-9.06-73.13,14.71-2.87,3.57-4.35,8.26-6.66,12.8-3,.91-6.93,1.68-10.49,3.3-8.67,3.95-14.06,11-17,19.9-2.74,8.4-5.21,16.9-7.66,25.39a9.1,9.1,0,0,0,0,4.34c2.94,12.7,7.71,24.44,17.76,33.4-9.7-4.93-15.81-12.82-19-23.09-.8-2.61-1-5.4-1.78-8-.26-.87-1.48-2.07-2.25-2.07-8.66,0-18.54,7.94-20.76,16.41-1.67,6.39.74,12.62,6.63,17,1.36,1,2.81,1.91,4.53,3.08-6.62.12-12.17-4.09-15-10.9-4.62-11.07,0-19,9.54-25.75-9-1.15-17.79,0-24.83-6.5,9.78,2.1,19.29,3.06,28.71-.1a122.21,122.21,0,0,0,12.18-4.73c1-.47,1.58-2.22,2.1-3.49,3.15-7.68,5.65-15.7,9.48-23a35.15,35.15,0,0,1,19.75-16.91,5.94,5.94,0,0,0,2.83-2.69c3.84-7.12,2.42-14.44-3.94-19.83-3.69-3.14-7.62-6-11.11-9.62,4.83,2.07,9.77,3.88,14.44,6.24,11.33,5.74,21.3,2.27,30.81-4.23,1.77-1.21,2.88-3.41,4.86-5.86-13.41-1.49-22.06-8.84-29.6-17.72-5.18-6.1-8.59-12.95-5.74-21.3a40.27,40.27,0,0,1,2.59-5c.33,5.07.34,9.55,1,13.95a19.52,19.52,0,0,0,7.49,12.55c6.56,5.33,13.64,9.59,22.1,11.21,10.88,2.09,17.12-1.65,19.66-12.38,1.28-5.44,1.92-11,2.74-15.94,1.08,5.52,2,11.7,3.52,17.75,2.63,10.79,8.83,18.54,19.76,22,5.11,1.61,10.13,3.5,15.28,5a33.1,33.1,0,0,0,19.07-.5c12.62-3.78,25.47-6.88,38.37-9.61,8-1.7,15.84,0,22.95,4.47,5.18,3.23,10.49,6.24,15.48,9.2,6.9-5.19,13.56-10,20-15.12,4.41-3.49,4.2-9.56-.38-13.24-2-1.62-4.49-2.64-6.73-4-1.57-.94-3.09-2-4.63-3l.46-.85c3.72,1.79,7.41,3.64,11.17,5.35,10.42,4.75,20.82,9.56,31.32,14.13,9.94,4.32,20.46,3.88,31,3.16,28.55-2,53.35-12.72,74.56-31.85,1.37-1.23,2.36-2.88,4-3.83a67.18,67.18,0,0,1-21.64,20.84c-8.69,5.27-17.92,9.66-26.38,14.16,1.59,4.72,3.35,10.1,5.25,15.43a8.18,8.18,0,0,0,2.17,3.38c2.43,2.05,14.12,2.12,16.46-.11a140.7,140.7,0,0,0,11-11.64c3.52-4.22,7.14-7.92,12.91-8.88,1.34-.22,2.46-1.7,3.93-2.78.13,3.12-1.79,5.25-4.2,6.56-5.51,3-9.8,6.84-12.7,12.64-1.26,2.53-4.74,4-7.15,5.84l6.21,2.33c-12.71-.59-25.19-3.07-37.13-.51,1.27-1.86,4.2-4.23,3.9-6.07-.82-4.89-2.85-9.63-4.86-14.22-.29-.68-3.15-.62-4.7-.3-15.94,3.31-31.88,4.19-47.88.52a39.86,39.86,0,0,1-6.46-1.88c-9.09-3.77-17.19-1.31-24.56,4.16-6,4.46-10.22,10.56-13.41,17.28-2.52,5.3-2.15,10.58.63,15.8,2.1,4,4.34,7.93,5.68,12.16,1,3.19.7,6.8,1,10.22Zm-184.2,62.71a26,26,0,0,0,12.08-2.63c2.44-1.14,3.78-1.53,6.16-.16,11.35,6.49,23.37,10.56,36.74,9.14,15.37-1.64,24.67-10.36,26.92-25.25.11-.74.51-1.81,1.08-2.06,4.29-1.92,8.66-3.68,12.88-5.44,0,.74-.05,2.11,0,3.47.44,10.76,4.23,20,14.81,23.88a144.9,144.9,0,0,0,28.45,7.42c16.89,2.57,33.87.5,50.79-.9,14.6-1.21,27-7.35,37.89-16.95a107.61,107.61,0,0,0,23.78-31c.54-1,1.16-2,1.87-3.18,9.23,11.16,18.55,21.53,31.26,28-16.21-12.23-28.87-27.35-29.71-36,4.26,1.37,8.47,2.91,12.77,4.07,13.58,3.66,27.25,4.94,41,.64,7.91-2.48,13.4-7.54,15.78-15.62,2.33-7.87,1.58-15.69-.5-24-.71,5.69-1.13,10.86-2,15.95-2.56,14.46-9.91,21.53-24.36,22.1a116.37,116.37,0,0,1-25.63-1.71c-15.71-2.9-29.82-9.25-41.12-21.29A98.71,98.71,0,0,0,505,384.62a42.75,42.75,0,0,0-4.35-1.47l-.77,1.17a17.12,17.12,0,0,0,3.12,2.76c10.87,5.49,20,13.25,27.86,22.32a74.5,74.5,0,0,0,18.9,15.69c5.24,3.05,6,4.6,3.57,10.18-10.59,24-27.85,40.82-54,46.2a159.46,159.46,0,0,1-78.11-3.17c-9.14-2.69-14.45-8.34-16.16-17.58-3.1-16.74,6.55-37,21.51-45.06a38.28,38.28,0,0,0,5.76-3.44c1.08-.85,2.45-2.41,2.34-3.53-.63-6.34-1.66-12.64-2.55-19l-1.71.12c0,1.53-.05,3.07,0,4.6.43,12.26-5.81,20.52-17.7,23.28-5.82,1.35-11,1.14-15.71-3.76-6.61-6.93-13.86-13.27-20.85-19.84-4.29-4-8.59-8.05-12.64-11.84.33.65.8,1.76,1.4,2.79,4.89,8.43,11.59,15.24,19,21.42,5.27,4.39,10.55,8.8,15.4,13.63a18,18,0,0,1,4.47,8c1.94,7.65-2.92,18.06-10.21,23-4.14,2.79-8.67,4-13.49,2.2-5.11-1.94-10.45-3.63-15.06-6.45-14.35-8.76-29.77-15.11-45.35-21.11-11.67-4.5-23-9.36-30.47-20.21,1.8,3.43,3.47,7.25,6.37,9.38a87.89,87.89,0,0,0,17.86,10.58c16.46,6.85,33.18,13,48.34,22.65,5.43,3.46,11.51,5.89,17.3,8.79,1,.48,1.93.93,2.94,1.42-1.18,6.83-4.4,12-10,15.41a34.83,34.83,0,0,1-25.9,4.54c-13.6-2.85-24.09-11-33.86-20.33-2.08-2-4.06-4.09-6.08-6.14a3.29,3.29,0,0,0,.37,2.29c1.65,3.76,3.67,7.4,4.87,11.29,1.55,5.06-.58,7.84-5.73,8a39.48,39.48,0,0,1-8.55-.58c-5.22-1-10.37-2.44-15.56-3.69C288.46,473.94,295.92,477.85,304.39,478.36Zm149.42-224c-3,4-6.48,7.78-9,12.09a52.93,52.93,0,0,1-19,19.15c-8.65,5.16-17.89,3.28-27.87,3.07,1.3-1.12,1.87-1.57,2.39-2.08s.85-1,1.32-1.54c-.37-.16-.52-.28-.58-.25-.74.45-1.47.93-2.21,1.38-8.62,5.28-17.39,6.52-26.41.94-4.24-2.62-8.37-5.45-12.78-7.76s-8.86-5-13.6-5.87a45.74,45.74,0,0,0-36.69,9c-6.86,5.27-12.66,11.93-18.87,18a47.2,47.2,0,0,0-3.54,4.48c2.67-2.41,4.81-4.31,6.91-6.26,10.31-9.61,21.07-18.4,35.67-20.63,11.27-1.71,21.72-.65,31.11,6.85,4.08,3.25,9.23,5.17,13.92,7.65a23.47,23.47,0,0,0,2.77,1c-3.76,7.93-5.64,15.88-4.94,24.28.49,5.89,1.69,11.63,5.28,16.52,2.83,3.85,6.26,4.79,9.89,2.88-4.11-1.72-6.1-5.05-7.2-9.05a37.92,37.92,0,0,1,2.83-28c2.14-4.3,5.43-6.78,10.15-7.17a32,32,0,0,1,7.83.1c8.15,1.37,16.26,3,24.08,4.47-1.59-6.46-.51-8.31,6.44-12.06,18.15-9.82,37.84-15.25,57.61-20.47,7.57-2,15.27-3.51,23.12-5.28-5.07-1.68-6.59-5.22-6.12-10.24s-1.52-9.21-5.5-12.8a124.3,124.3,0,0,1-13.59-14.41c-18.19-22.66-23.37-49.05-21.47-77.33.34-5.14,1.07-10.26,1.62-15.39a86.1,86.1,0,0,0-3,13.83c-3.77,27.06.84,52.35,15.95,75.45a49.79,49.79,0,0,1,4.78,9.26c1.2,3.06,1.48,6.19-1.45,8.91-4.8,4.46-4.73,5-.72,10.18.38.49.74,1,1.1,1.51,4.92,7.18,3.28,12-5,14.72-7.82,2.55-15.65,5.05-23.44,7.68-2.88,1-5.67,2.24-8.5,3.37l-.92-.67q4-9.51,7.94-19ZM394.14,0c-2.26.4-4.51.87-6.78,1.18C374.51,2.9,361.7,5.05,348.79,6.12c-8.64.72-17.42,0-26.12-.27-15.54-.54-30.59,1-44.63,8.54-2.54,1.37-6.06,1-9.13,1.27-13.37,1.21-26.64,3.25-38.41,10-6.67,3.85-13.1,7.91-20.64,9.89-4.17,1.1-8.22,2.63-12.38,3.75-12.25,3.29-23.2,8.45-29.79,20.48-9.82-6.6-18.41-3.58-26.57,2.88-1.27,1-2.69,1.83-3.92,2.87-5.53,4.66-11,9.38-16.52,14.06a5.18,5.18,0,0,1-1.76,1.26C105,84.37,94.14,93.12,83.7,102.1c-7.77,6.69-15.26,14.2-21,22.62-4.53,6.65-8.66,13-15.12,18.12-5.07,4-8.14,10-9.36,16.64a5.76,5.76,0,0,1-3.49,4.7c-9,4.44-13.45,12.65-16.52,21.65A69.78,69.78,0,0,0,15,199.26c-.91,7.05-2.76,13.81-4.54,20.66-1.06,4.11,0,8.77,0,13.19,0,1.36.32,3.08-.35,4a51.25,51.25,0,0,0-9.1,25.74A18.47,18.47,0,0,1,0,266.66v3c.42.86.9,1.7,1.26,2.58q4.22,10.33,8.41,20.67c2.81,6.9,6.64,13.58,8.22,20.75C21.44,329.73,30.72,341.18,44,350c5.12,3.4,10.46,6.26,16.84,6.62.82.05,1.86,1.39,2.3,2.36C66.49,366.38,72,371.1,80,373c17,4.13,34.44,5.73,51.88,6.45,14.58.6,29.19.25,43.78.44,4.54.06,9.08.43,12.66,2.72-3.19,3.56-6.83,6.58-9.14,10.4-5.8,9.58-7.07,20.24-4.66,31,3.51,15.76,9.95,30,23.13,40.33,3.41,2.66,7.68,4.56,10.33,7.81,16.57,20.41,38.18,31.61,63.79,35.48,8.91,1.35,17.17,2.68,25.31,7.89,16.52,10.55,35.28,11.31,54.2,7.55,10.24-2,20.36-4.69,30.62-6.62a122.71,122.71,0,0,1,17.75-1.79c5-.19,9.94.38,14.92.62.86,0,1.73.15,2.59.22,10.42.89,20.47.26,29.28-6.41,1.8-1.35,4.1-2.68,6.24-2.81,5.59-.35,11.24.29,16.84,0a134.69,134.69,0,0,0,15.71-2.12c4.63-.82,9.16-2.13,13.76-3.08,7.5-1.54,15-3.06,22.54-4.4,6.57-1.17,13.16-2.58,19.79-3,8.18-.51,16.42.2,24.61-.18,8.83-.41,16.55-4.25,23.82-9.07,5.14-3.4,9.28-7.65,11.49-13.33,3,.95,5.54,1.74,8.1,2.59,10.66,3.53,21.31,7.53,32.71,7.08,7.43-.29,14.14.73,20.19,5.18,8.48,6.25,18.09,5.88,27.81,4.6,2.55-.33,5-1.21,7.57-1.5,5.68-.63,11.61-.2,17-1.68,20.62-5.64,36.77-17.28,46.65-36.75,7.37-14.5,8.44-30.1,8.15-45.91a43.85,43.85,0,0,0-1.87-12.82,18.14,18.14,0,0,1-.63-9c2.13-13.71,1.57-27.31-4.84-39.81a35.71,35.71,0,0,1-3.78-17.77c.19-10.6-1.48-21-6.95-30.23-2.54-4.3-4.89-8.41-6-13.4-.73-3.2-3.41-5.94-5.13-8.94a9.74,9.74,0,0,1-1.45-3.55c-1.09-9.39-1.38-18.92-3.21-28.15-2.42-12.21-5.53-24.56-13.13-34.69-4.09-5.43-6.53-11.31-9-17.38-.38-.92-.74-1.85-1.16-2.75-8.12-17.42-19.38-31.91-37.42-40.1-1.07-.49-1.88-1.86-2.5-3-9.41-17.37-21.76-31.56-41-38.43-1.32-.47-2.36-1.72-3.52-2.64-6.2-5-12.28-10.08-18.63-14.84-5.95-4.47-12.13-8.63-18.31-12.76a73.35,73.35,0,0,0-7.55-4c-1.32-.66-2.78-1.07-4-1.85C567.87,61.63,556,55.52,542.7,53.14a20,20,0,0,1-11.12-5.87,75.12,75.12,0,0,0-37.13-19.73A21.52,21.52,0,0,1,488,24.92c-14.71-8.94-30.34-15-47.71-16A44.09,44.09,0,0,1,433,7.56c-8.58-2-17.14-4.13-25.72-6.13-2.6-.6-5.25-1-7.87-1.43ZM57.34,144.13c-7,6.48-9.32,14.15-5.56,23.2H43.43c-1.54-10.64,8.37-24.81,19.68-27.92.81-2.93,1.08-6.16,2.51-8.76,6.45-11.7,16.19-20.51,26.78-28.26,7.3-5.35,15.26-9.8,23-14.55,2-1.27,4-1.58,5.58,1.12.64,1.06,2.5,1.4,3.81,2.07a5.34,5.34,0,0,1,.86-8c8.28-6.78,16.54-13.66,25.39-19.63,5.64-3.8,11.26-.7,16.12,3.08,1.06.83,2,1.82,3.5,3.19a26.31,26.31,0,0,1,12.69-18.37A52.1,52.1,0,0,1,204.5,44l.55,1.14c-3.42,1.83-6.71,4-10.3,5.41A32.65,32.65,0,0,0,181.51,60c-3.77,4.4-4.24,9-2.19,14.45,1.19-3.87,1.93-7.63,3.52-11a15.73,15.73,0,0,1,5.2-6.09c5.57-3.72,11.37-7.15,17.27-10.32a54.74,54.74,0,0,1,12.82-4.78h-7.27l-.22-1c3.36-1,6.73-2,10.09-3.09,1.29-.4,2.87-.53,3.78-1.38,9.13-8.44,20.51-11.5,32.26-13.63,4.74-.85,9.55-1.33,14.32-2,.21.47.41.94.61,1.41-8.66,4.9-17.09,10.28-26.06,14.52-6.4,3-11.15,6.65-11.81,12.34,1.15-1.33,1.8-2.49,2.78-3.16C240,44,243.17,40.71,246.86,40A52.88,52.88,0,0,0,267.1,30.8c4.27-3,8.77-5.72,13.22-8.47A31,31,0,0,1,302,17.91l-10.14-2.64-.26-.62c4.73-.88,9.45-2.36,14.2-2.5,9.2-.26,18.43.65,27.62.33,10.83-.37,21.68-1.06,32.41-2.47,14.6-1.93,29.08-4.84,43.89-2.52a86.13,86.13,0,0,1,10.7,2.32c-9.59,2.06-19,4.07-25.27,14.07a31.48,31.48,0,0,0,2.79-1.65,48.82,48.82,0,0,1,26.17-10c2.49-.22,5.07.72,7.61,1.08,4,.58,8.07,1.24,12.12,1.65,13.78,1.39,26.11,6.77,37.83,13a86.34,86.34,0,0,1-8.58,4.14,5.33,5.33,0,0,1-4.17-.66A38.82,38.82,0,0,1,463,26.3a21.53,21.53,0,0,0-16.17-6.63C454.74,22.4,460.8,26.28,463,34c2.11,7.3,1.13,14.57-1.11,22.69-4.23-4.36-7.7-8.79-12-12.13s-9.52-5.62-14.61-7.9c8.39,6.9,17,13.4,23.29,22.38a16,16,0,0,1,1.65,3.34,15,15,0,0,1,.52,2.5c-7,.6-13.94.58-20.6,1.92A215.41,215.41,0,0,0,413.52,74c-10.06,3.41-15.29,11.36-15.5,21.68-.21,9.92.73,19.9,1.63,29.81,1.13,12.5-3.09,21.23-14.08,27.28a44.69,44.69,0,0,1-8.87,3.94c-9.91,2.89-18.76,7.4-25.63,15.78-2.7-7-7.94-11.37-13.17-15.83-11.29-9.64-16.61-22.46-18.71-36.83a53.25,53.25,0,0,0-1-5.78c-3.45,17.37,3.44,31.1,15.24,43.08,1.57,1.6,3.23,3.12,4.85,4.67,7.49,7.12,10.4,15.91,8.25,25.88-2.92,13.49.76,24.85,10.57,34A303.1,303.1,0,0,0,381,241.38c7.88,6,16,11.55,21.21,20.26a103.74,103.74,0,0,1,4.44,9.5,24.6,24.6,0,0,0-7.54-19.21c-8.24-7.94-17.19-15.13-25.82-22.66-4.88-4.27-10.09-8.23-14.48-12.94-8.06-8.64-9.93-19-8-30.61,2.4-14.38,11.28-21.44,24.83-24.13,17.87-3.55,27.53-15.16,28-34.42a109.92,109.92,0,0,0-1.84-21.56c-1.81-10.29,1.26-18.47,9.06-25,10.06-8.4,22.16-11.42,34.84-11.57,10.07-.13,20.15,1.28,30.24,1.66,7.71.3,15.45.06,23.25-.17L474.86,66.7a21.13,21.13,0,0,0-3.33-.45c-3.58,0-4.48-1.68-3.73-5a9.45,9.45,0,0,0-.64-4.61A19.89,19.89,0,0,1,483,30.51a5.08,5.08,0,0,1,2.2-.17c7.41,2.44,15,4.58,22.15,7.56,9.45,3.91,17.42,10.13,24.45,17.57a6.86,6.86,0,0,0,3.65,2.13c14.51,1.94,27.47,7.79,39.75,15.45,2,1.22,4.26,1.89,6.34,2.94a52.27,52.27,0,0,1,6.17,3.44c5.62,3.86,10.89,8.32,16.79,11.71a83.32,83.32,0,0,1,20.36,16.26,8.19,8.19,0,0,0,3.23,2.38c16.12,5.18,27,16.49,35.74,30.3,1.51,2.39,2.77,4.93,4,7.07l-14.56-.73c-2.52-10.24-9.48-17.86-20.54-21.69,2.2,1.68,4.48,3.27,6.6,5.06,5.58,4.72,9.88,10.21,10.33,17.93a5.83,5.83,0,0,0,1,2.39c6.78,11.57,7.76,23.46,2.06,35.75a9.41,9.41,0,0,0-.42,1c0,.08.06.21.09.32,8.24-8.11,9-20.25,2.16-37.78,7.11-1.43,13,.9,18.16,5.37s8,10.12,6.44,17.29l7.3,4.39.36-.4-4.26-3.59c.77-6.46-.66-12.49-5.23-17.61.24-.27.49-.53.73-.79,3.16,2.35,6.55,4.45,9.45,7.09,12,10.87,19.15,24.69,24.36,39.75a18.43,18.43,0,0,0,3.65,5.73c6.25,7.18,9,16,11.66,24.8,3.62,12,6.2,24.15,5.72,36.78-.05,1.43-.31,2.84-.47,4.26l-1.23.2c-2.59-7.95-5.78-15.76-7.56-23.89-1.34-6.12-.53-12.69-1.32-19a81.74,81.74,0,0,0-3.87-15.42c.32,12.4.36,24.82,1.13,37.19.24,3.93,2.32,7.77,3.78,11.57a22.13,22.13,0,0,0,2.67,4.05c4.14,6.06,4,8.47-.66,13.82a102.07,102.07,0,0,1,4.89,9.16C734.62,300.88,732,310,722.76,317a28.67,28.67,0,0,0-3.23,2.54c-2.74,2.79-2.33,4.2,1.26,5.84a16.11,16.11,0,0,1,3.2,2.58l-.08.07c.5-1.69.47-4,1.6-5,10.56-9.17,13.21-19.81,6.76-32.45-.09-.18,0-.46.06-.95,5.62.46,9.8,3.24,13,7.67,4.37,6.07,6.16,13.2,6.73,20.38,1,13.24.44,26.45-4.23,39.13-.89,2.41-2.26,4.65-3.62,7.4-1.46-5.81-2.33-11.16-4.16-16.16-2.8-7.69-6.33-10.46-10.77-9.54,12.22,9.56,11.91,22.57,9,35.64-1.53,6.79-5.21,13.09-8,19.57a68.59,68.59,0,0,0-2.91,6.33c4.45-8.87,13.74-15,14.84-25.67.41-4,2-6.22,5.76-7.88,4.86-2.16,6.59-6.91,7.36-11.88.48-3.05.68-6.13,1-9.26,9.54,10.92,7.12,44-4.32,54.67-.51-10.63-1.93-20.73-6.49-30.12.87,8.82,2,17.54,2.49,26.29a70.6,70.6,0,0,1-4.63,30.46,38.44,38.44,0,0,1-5.16,9.47c-5.78,7.29-2.87,15.05-2.1,22.77.48-8.65,0-17.46,6.18-25.14,5.74,6.06,6.08,12.93,4.68,20.49,5.26-5.89,5.13-15-.26-21.37-1.54-1.8-1.46-3-.63-5.13,2-5.08,4.07-10.32,4.63-15.66.68-6.53,5.39-10.41,7.8-15.71l1,0c.56,3.37,1.62,6.74,1.6,10.1a108.58,108.58,0,0,1-9.21,44c-2.47,5.54-6.87,9.34-11.74,12.79-5.28,3.73-10.32,7.81-15.55,11.63a10.46,10.46,0,0,1-4.31,2.05c-6.15.95-12.32,2.18-18.5,2.28-6.51.1-12.74,1-18.56,3.68-5.47,2.49-9.7,0-14-2.55-.8-.48-.81-2.29-1.47-4.38,5.86,2,9.84-.71,14.09-2.71a16.24,16.24,0,0,1,6.5-1.31c5.61-.12,11.24.36,16.84.09,8.95-.41,13.58-4.68,15.5-13.4.76-3.46,1.77-6.85,2.9-11.18a60.09,60.09,0,0,0-4.53,4.58A15.87,15.87,0,0,0,717,456c-4.6,11.35-13.1,12.59-22.58,11.18-4.68-.7-8.72-.2-12.52,2.1-5.86,3.56-11.61,4.73-18.45,2.43-3.08-1-7.28-.23-10.54.95-11.36,4.1-22.34,2.28-33.38-1-3.5-1.05-2-3.23-1.49-5.66,1,.46,2,.61,2.36,1.18,1.62,2.45,3.5,3.08,6.32,1.91.71-.3,2.07.94,3.26,1.54,2.89-1.89,6.15-4,9.41-6.12l-.33-1.06c-6.21,1.58-12.39,4.76-19.47.58l7.71-5c4.49-2.9,9-5.71,13.45-8.72,2.36-1.6,3.48-.33,3.47,1.66,0,2.16-1.09,4.29-1.36,6.48a26,26,0,0,0,.29,4.88c1.63-.22,3.66.08,4.83-.78,5.56-4.07,11.45-3.6,17-.86,3.81,1.87,6.29,1.19,8.27-1.9s4.18-3.14,7.49-2.18c7.71,2.24,15.1,1.26,21.52-4a14.66,14.66,0,0,0,1.91-20.6c0,3.36.55,6.91-.11,10.22-1.84,9.3-10.2,14.19-20,11.88a30,30,0,0,1-16.73-10.53c-6.42-7.82-9.79-15.9-6.45-26.24,1.24-3.86.74-8.42.38-12.61-.3-3.49.89-5,4.11-5.86,1.84-.5,3.41-2,5.1-3-1.74-.63-3.49-1.25-5.22-1.91-2.85-1.08-5.69-2.19-8.71-3.35.4,2.17.82,4.56,1.28,7,2.72,14.15-.89,26.75-9.68,37.88-9.69,12.24-21.55,21.75-36.29,27.38-5.28,2-10.5,2.85-15.81-.07-1.45-.8-4-2.54-2.8,1.95.53,1.91-.84,4.59-1.89,6.64-5.68,11.09-15.76,14.51-27.29,15.27-12.19.81-24.5.86-36.53,2.7-11.63,1.78-23,5.36-34.44,8.26a131.65,131.65,0,0,1-40,3.95,9.33,9.33,0,0,1-4.37-1.76c-4.94-3.38-9.64-7.12-14.68-10.32-3.18-2-6.82-3.32-10.25-4.94l-.48.89,18.76,17.19c-.71,2.86-3.48,5-6.5,5.58-5.18,1.05-10.68,2.11-15.82,1.46-16.93-2.15-33.66-1.15-50.31,1.83-7.45,1.34-14.62,4.29-22.08,5.47-20.52,3.25-39.78.41-56.44-13.28-1.15-.95-3.17-1.13-4.8-1.19-21.77-.85-41.86-6.77-59.06-20.47-5.59-4.46-10.16-10.2-15.23-15.31a16.55,16.55,0,0,0-3.33-2.84c-18.83-10.78-26.76-28.17-29.22-48.65A30.23,30.23,0,0,1,182.9,398a36.16,36.16,0,0,1,6.52-7.93c2.81-2.79,6-5.21,9.19-7.94,1.71.21,4.57,1.25,7.13.74,4.77-.93,6.5-3.25,6.06-9.22-.79-10.66,3.75-19,9.92-27,4.5-5.82,8.84-11.77,13.21-17.68,6.6-8.91,14-11.23,24.54-7.62,1.76.61,3.47,1.36,4.91,1.93,1.57-2.42,2.76-5.08,4.7-7s4.7-3.16,7.53-5c-1-.63-1.93-1.28-2.92-1.84-5.69-3.2-7.95-7.1-6.89-13.53,2.23-13.45-.11-26.21-4.44-38.94-3.47-10.21-6.14-20.69-9.89-30.95,2.05,9.84,3.65,19.79,6.26,29.47,3.19,11.8,5.27,23.67,4.21,35.83-.37,4.33-2.33,8.55-3.82,12.73a10.61,10.61,0,0,1-2.73,3.52c-2.72,2.7-6,4.43-9.8,3s-5.54-4.82-6.07-8.73a48.89,48.89,0,0,1,0-5.4c-3.19,3.64-5.77,6.72-8.49,9.67-5.92,6.43-7.6,6.36-15.62,3.18-13.17-5.22-17.6-16.42-19.83-28.71a95.22,95.22,0,0,1-1.05-23.07c1-14.79,2.54-29.57,4.43-44.29,1.46-11.37,2.32-12.43,8.93-21.8-8.42,6.15-17.17,6.75-26.37,1.87,14.26,16.73,13,36,9.68,55.42-1.37,8-3.42,15.82-5.24,23.71-1,4.13-1.2,8.2.82,12,4.56,8.7,3.7,16.31-4.08,23.08a53,53,0,0,0,5.53-2.35c4.43-2.47,8.91-2.26,13.3-.23,3.16,1.46,6.08,3.4,9.16,5,4.71,2.5,9.39,5,14.2,7.3,3.08,1.46,4.28,3.45,3.26,7.32-2,7.57-11.42,16.85-19.45,17.5,1.4-4.4,4.66-6.77,8.28-9s7.18-4.69,6.68-10.48c-1.76,1.91-2.92,4-4.69,4.9-6,3-9.8,8.12-14.25,12.82-5.77,6.08-14,7.85-22.12,8.94-11.55,1.54-23.21,3-34.42-1.23a102.59,102.59,0,0,0-25.32-6.26c-3.35-.34-6.71-.71-10.07-.87-14.52-.71-22.46-18.12-19-28.17,1.15-3.32,2.71-6.49,4.38-10.44a43.83,43.83,0,0,1-4.64-30.87c2.39-10.62,5.71-21,8.38-31.82C101,243.38,99,247,97.36,250.69a39.6,39.6,0,0,0-1.63,6.12c-.6,2.31-2.26,3.26-4.21,2.05-5.61-3.48-11.43-6.77-16.41-11-3.56-3-2.36-7.93-1.21-12,1.26-4.42,3-8.7,4.55-13a11,11,0,0,0,.7-3.57c-3.58,5.54-7.18,11.06-8,17.81-.71,5.69-1.1,5.62-6.54,6.63a15.5,15.5,0,0,1-14-3.7c-3-2.56-7-4-10.49-6l-.5.89c2.91,2,5.88,4,8.73,6.15,5.11,3.81,5.32,4.47,4.07,9.23l17.25-4L69.25,248c2.39,2.11,4.57,4.54,7.21,6.25A100.11,100.11,0,0,0,87.35,260a6.68,6.68,0,0,1,4,6.59c0,2.36-.8,4.72-.66,7.05.43,6.68,1.28,13.34,1.71,20,.27,4.18,1,8.68-.09,12.53-2.24,7.59-.95,14.51,1.67,21.51.29.79.56,1.58,1.17,3.28-3.94-1.26-7.3-2.08-10.45-3.39a58.29,58.29,0,0,1-19.38-12.92A266.76,266.76,0,0,0,37,289.77c-9.24-7-14.74-15-14.95-26.84-.24-13.73-1.26-27.48,1.92-41a69.49,69.49,0,0,0,1.88-16.48c0-16.06,7.91-28.29,22.7-35.34,2.76-1.32,3.84-2.65,3.85-5.77,0-12.18,5.65-20.85,16.9-25.84a10.26,10.26,0,0,0,3.3-3.11c1.54-1.9,2.91-3.93,4.35-5.91l.77.47a21.25,21.25,0,0,1-1,1.88C69.67,142.31,63.42,153.17,59,165.07c-5.62,15.08-1.76,28.09,7.88,40.06.74.91,1.53,1.78,2.86,3.33-9.92-2.56-19-5.5-28.32-1.23,12.74-1.15,24.43,3.31,36.66,7.07-3-3.67-5.76-6.86-8.35-10.17-11-14.13-12.84-29.19-5.08-45.54,7.62-16.07,17.18-30.67,30.37-42.71,1.08-1,3-2.17,4.09-1.83,2.84.87,4.26-.32,6-2.2,5.73-6.17,12.78-8.4,21.77-6-3.26-13.92,6.85-21.38,14.21-30.44C136.6,76.48,128.4,84.47,124.76,91l-3.42,9.2c-3.78,1.17-8.66,1.86-12.65,4.11A90,90,0,0,1,92,111.19c-6,1.94-9.94,6.27-13.42,11.69-3.06,4.76-8.42,7.89-10.5,13.73-.48,1.34-3.33,1.84-5.1,2.72C61.12,140.93,59.15,142.44,57.34,144.13Zm88.1,229.42c-6.8,0-13.59-1.49-20.41-2-9.07-.67-18.19-.77-27.25-1.59-7.72-.69-15.17-2.46-21.9-6.83-10.43-6.77-10.24-20.62-6.66-28.1,1.48-3.1,7.66-4,9.64-1.07,2.91,4.32,7.07,5.17,11.59,5.66a33,33,0,0,0,6.34.34c3.56-.31,5.84,1.25,7.86,4a72.77,72.77,0,0,0,7.28,8.49,13.73,13.73,0,0,0,13.47,3.69c4-1,7.32-.42,10,3.05,5.64,7.41,13.79,9.49,22.47,10.06,9.71.64,19.45,1,29.17,1.51,3.19.18,6.33.7,9,3.87C178.77,371.52,162.09,373.57,145.44,373.55ZM37.51,309.63c-2.14-3.28-5.16-6-8-8.84-4.05-4.06-8-8.36-12.48-11.83C8.72,282.55,6.85,273.71,6.8,264.11c-.06-10,4.63-20.76,12-27.88.09,1.92.15,3.28.22,4.63.57,10.56.88,21.14,1.79,31.66.6,6.92,4.65,11.9,10,16.39,11.35,9.52,22.21,19.61,33.26,29.47a10.36,10.36,0,0,1,1.06,1.4C55.33,322.6,42.74,317.61,37.51,309.63Zm170.91,42.92c-11.69,4.87-23,10.55-36.46,4.5l50-16.75c-5.29,7.2-10.23,14.21-15.51,21-1.84,2.35-4.25,1.18-6.64-.77Zm-177.58-22c10.41,2,19.89,5.14,30.82,2.45,2.42,1,3,3.22,1.84,6.89-1,3.22-.87,6.84-1.33,11.19C48.56,349.09,40,340.11,30.84,330.54ZM30,315.84c1.35,1.78,3.75,3,5.93,3.91,6,2.39,12.13,4.31,18.1,6.72,1.94.79,3.49,2.51,5.46,4-7.89-.35-15.18-.48-22.44-1-5-.38-9.14-2.45-10.7-7.77-1.82-6.17-3.6-12.35-5.4-18.52l.6-.3C24.36,307.19,26.9,311.73,30,315.84ZM23.52,214.41a3.61,3.61,0,0,1-.22,2.14c-3.81,5.64-4.38,12-4.3,19.55a14.06,14.06,0,0,1-3.84-10.75,9.15,9.15,0,0,1,.61-3.67c4.15-8.73,3.43-18.53,6.14-27.5A94.59,94.59,0,0,1,30,175.88c2.3-4.16,6.39-6.85,11.72-8C28.05,180.79,21.71,196,23.52,214.41ZM741,288l-11.75-4.73c.91-2.27,1.81-4.53,2.95-7.4C736.36,279,739.82,282.33,741,288ZM81.54,125.54c.38-5.69,6.64-11.29,13.39-11.5ZM588,246.52c6.13-2.08,12.31-4,18.48-6,9-2.83,11.8-1.1,12.82,8.32a12.3,12.3,0,0,1-1.49,7.12c-4.94,8.34-10.66,15.77-18.52,22.08-8.2,6.59-16.49,6.39-25.64,5.55-7.54-.69-15.14-1.54-22.7,1.08-7.09-8.86-15.1-16.59-26.31-20a17.65,17.65,0,0,0,3.21,2.52c7.86,5.17,15.21,10.95,20.48,18.88,1.34,2,2.7,2.43,4.91,2.25,6.59-.53,13.21-1.29,19.79-1.1,8.47.24,16.68.05,24.08-5,9.15,8.86,11.54,20.18,13.37,31.76.59-11.77-1.68-22.73-9.36-32.31,8.17-6.07,14-13.72,18.87-22.27,2.28-4,5.76-4.52,8.36-.78a49.45,49.45,0,0,1,6.92,13.86c1.94,6.56,2.68,13.48,4,20.75a16.09,16.09,0,0,0,.55-2.39c.81-12.68-1.73-24.52-8.75-35.27-4.5-6.9-3.52-11.3,2.89-16.66a157.89,157.89,0,0,0,13.62-12.75,31,31,0,0,0,8.06-15.51c-1.32,1.84-2,2.89-2.75,3.83-5.21,6.19-10.27,12.51-15.74,18.45a26.31,26.31,0,0,1-7.91,5.52,6,6,0,0,1-5.14-.52c-.81-.58-.53-3.07-.31-4.63.35-2.43,1.16-4.79,1.58-7.21.66-3.75.56-7.74,1.84-11.25a49,49,0,0,1,16.9-23c-12.86,2.16-17.08,12.6-22.27,22.8-2.48-7.25-4.73-14.57-6.54-22-1.52-6.24-3.65-11.92-9.3-15.13,2.14-4.34,4.55-8.42,6.22-12.79,3.35-8.81,2.27-17.16-3.83-24.57-2.95-3.57-6.13-4.77-10-3.87,8.29,3.72,11.89,10.59,12.63,19,.76,8.76-3.45,15.54-10.24,21.08,7.2,6.07,11.75,13.18,12.32,22.57.15,2.51,1.56,5,2.44,7.42,2,5.49,4.22,10.9,5.9,16.49a12.84,12.84,0,0,1-3.16,12.85,6.94,6.94,0,0,1-3.76,1.79c-7.34,1.22-14.84,1.75-22,3.49-10.48,2.53-20.83,5.2-31.71,3.23-3.78-.68-7.54-1.52-11.3-2.28C561.73,247.61,574.39,251.11,588,246.52Zm-452.75-61.8c-4.62,3.84-8.63,4.49-13.77,2.94-.24-.07-.48-.14-.72-.19-11.18-2.16-21.15-.39-28.61,9.07-4.43,5.63-8.33,11.58-10.23,18.61,5.21-6.25,10.11-12.7,15.26-19,7.72-9.38,20.39-10.66,30.65-2.88-7.48,7.75-7.29,16.86-4.33,26.43.82,2.65.06,4.71-2.69,6.19-2.09,1.12-3.75,3-5.61,4.61l.59.79h14.17c1.15,8.68,2.21,16.63,3.15,23.72,1-6.47,2.26-13.53,3.17-20.65.35-2.67,1.82-3.75,4-4.83,4.77-2.41,9.51-4.91,14.07-7.68a8.62,8.62,0,0,0,4.15-8.43c-4.66,8.18-12.9,10.68-20.89,13.55-4.61,1.66-6.53,1-8.91-3.23a21.39,21.39,0,0,1-2.07-5.56c-1.54-6.66-.07-13.13,1.58-19.55a18.61,18.61,0,0,1,9.08-11.85c8.72-5,17.8-7.9,28.55-2.84-7.55-7.79-7.75-7.75-9.68-18.08-2-10.88-6.58-20.77-11-30.73l-1,.28q2.6,9.64,5.17,19.27c-4.75-5.63-10.83-7-17.44-6.34a54.33,54.33,0,0,0-12.39,2.6c-10.09,3.56-20,7.69-30.06,11.3-4.25,1.52-8.76,2.3-13.15,3.42,11.09,1,21.13-2.44,31.23-6.28,6.45-2.45,13.28-5,20-5.3,18.08-.83,23,5.81,25.19,22.1C146.6,179,140,180.76,135.23,184.72Zm226-51.32c-2.08-9.78-4.43-19-5.91-28.26-1.77-11.11-1.56-22.7-9.8-32.33A57.5,57.5,0,0,1,356.69,72c5.42.16,10.18-1.1,13.58-5.6a68.59,68.59,0,0,0,3.81-6c4.38-7.26,10.46-11.91,19.14-12.74a73.2,73.2,0,0,0,9.24-1.35c3.22-.73,5.43-2.71,6.11-6.82A21.19,21.19,0,0,1,393,45.17a24.28,24.28,0,0,0-4.46.5c-7.24,1-13.19,3.33-15.94,11.33-2.54,7.39-7.91,11.64-16.54,11.34-3.8-.13-7.65,1.8-11.51,2.65a5.58,5.58,0,0,1-3.32-.11c-6.83-3.1-13.93-4.51-21.08-2a161.27,161.27,0,0,0-17.2,7.86,5.93,5.93,0,0,1-6.81-.4,34.3,34.3,0,0,0-11-5.1c-6.18-1.34-12.59-1.6-18.9-2.4-3.25-.41-6.48-1-9.72-1.49l-.33,1.35c4,1.06,7.93,2.43,12,3.12,6.14,1,12.4,1.38,18.54,2.44C296,75.88,301.73,84.56,295,94.18c-5.56,7.95-10.86,16.08-16.32,24.11-2,2.94-3.38,2.69-5.58-.31a148.84,148.84,0,0,0-9.33-11.63c-1.7-1.89-4.05-3.21-6.11-4.79l-.61.74c8.19,7,14.32,15.22,17.09,25.75.69,2.62,3.52,3.09,5.52.82,1.26-1.44,2.51-3.45,2.57-5.25.23-7.19,4.38-12.36,8.56-17.44a50.92,50.92,0,0,0,10.05-18.61A19.63,19.63,0,0,1,315,73.43,85.14,85.14,0,0,1,327.79,71c12.44-1.65,23.44,10.71,23.75,20.51a148,148,0,0,0,2.13,19.33c1.26,7.71,3.54,15.38-1.59,22.61-.16.22,0,.7.07,1.52Zm-75.79,107c.1-5.22-.14-10.48.53-15.63,1.22-9.42,3-18.77.22-28.18-2.91-9.85-8.84-16.62-19.42-18.38a5.65,5.65,0,0,1-5.18-5.87,54.26,54.26,0,0,1,.29-9.71c1-6.8,2.36-13.55,3.64-20.73-4.38,8.48-9.26,16-20.75,14.77,2.85,2.35,5.37,4.14,7.54,6.29,5.25,5.19,5.64,11.19,1.3,17.16a16.3,16.3,0,0,1-10.18,6.44c-1,.22-2,.5-3.15.81,7.36,7.3,8.49,16.79,11.22,25.64.22-2.41.15-4.77.23-7.13.21-6.06,1.36-11.91,4.58-17.15,3.63-5.9,9.37-7.75,15.84-5.25,6.67,2.58,9.59,8.1,11,14.56,2.27,10.53,1.28,21.1-.39,31.6-1.59,10-.81,19.54,4.14,28.66a37.43,37.43,0,0,1,3.76,11.27c1,5.68,1.2,11.48,1.75,17.23a11,11,0,0,0,1.25-5.07c-.75-7.16-1.09-14.46-2.88-21.36-1.68-6.45-4.29-12.48-.25-18.85a2.57,2.57,0,0,0,.17-1.1c.85-8.84,5.95-14.28,14-17.16,4.57-1.64,9.3-2.79,13.88-4.4,3.66-1.29,7.09-3.09,9.07-6.35-3.39,1.59-6.75,3.49-10.33,4.76-4.92,1.75-10,3.13-15,4.47a18,18,0,0,0-12.83,11.49c-1.15,3-2,6-3.25,9.74A10.43,10.43,0,0,1,285.48,240.39ZM175.76,82.2c-2.69,4.7-4.61,9.44-1.3,15.1-13.7.45-26.91,1.2-33.16,16.09-5.86-7.28-5-19.09,5.75-23.52,10-4.1,20.18-7.66,30.27-11.47-.72-3.22-2.74-3.08-5-1.83a57.25,57.25,0,0,1-22,6.78c-4.76.5-9.47,1.61-11.8,6.63-2.61,5.63-4.6,11.49-3.1,17.72,1.83,7.61,2.55,15-1.18,22.29-.89,1.76-.84,4.15-.76,6.23.06,1.53.89,3,1.37,4.53.76-.51.88-.74.88-1,0-.75-.09-1.5-.09-2.25-.09-15,8.07-25.37,19.55-33.67a15.79,15.79,0,0,1,5.58-2c9.61-2.32,19.18-1.32,28.47,1.35,6.44,1.84,12.57,4.81,19.94,7.71a17.36,17.36,0,0,1-2.17-1.2c-8.28-6.75-18-10-28.36-11.65-1.19-.19-2.87-.73-3.31-1.61-3.69-7.39,3.23-18.79,11.42-18.49a67.19,67.19,0,0,1,14.3,2.44c10.41,2.72,12.33,2.26,18.91-5.93,2.93-3.66,6.31-3.43,8.5.73a26.14,26.14,0,0,1,1.54,5c.72,2.5,1.43,5,2.14,7.51.79-7.92.43-15.66,4.77-23.49-2.76,1.34-4.72,2.32-6.7,3.24-1.46.68-3.14,2.08-4.4,1.78-4.09-1-6.24,1.35-8,4.15-2.93,4.76-7.23,5.77-12.27,5a57.71,57.71,0,0,1-8-1.64c-6.9-2-13.73-4-20,1.63,0,.05-.24,0-.36-.08A24.58,24.58,0,0,1,175.76,82.2ZM724,327.94c0,1.23,0,2.46.12,3.68.39,4.33,1.21,8.66,1.14,13-.08,5.91-1.36,11.36-7.91,14-1.17.46-1.88,3-2.06,4.71-.17,1.5.68,3.12,1.07,4.69,1,4-1.77,7.34-5.88,6.72a11.17,11.17,0,0,1-4.45-1.77c-6.18-4.16-12.8-7.19-19.66-8.25,1.48-8.38,2.94-16.62,4.4-24.86l-1.26-.23a48,48,0,0,0-1.34,5c-2.35,14.29-10.87,22.68-24.65,26.38-4.29,1.15-8.77,2.45-12.46,4.8-6,3.78-11.33,8.48-17,12.8l.57.88c3.27-2.09,6.88-3.81,9.76-6.36a45.61,45.61,0,0,1,21-10.79c5.48-1.17,10.95-2.38,16.38-3.76,7.14-1.82,13.29-.43,18.54,4.88,1.1,1.11,2.57,2.46,4,2.58,5.64.49,8.4,4.16,10.85,8.59,1.19,2.16,3.09,3.91,4.42,6a6.12,6.12,0,0,1,1.1,3.7c-1.07,8.58-4.91,15.12-13.3,18.77A59.5,59.5,0,0,0,696,420.16c-2.76,2-4.36,4.93-3.17,9.55,6.18-9.15,15-13.64,23.91-18.16,2.45-1.24,4.15-4.4,5.67-7,4.94-8.39,4.94-16-4-22a3.84,3.84,0,0,1-1-5.89c2.21-3,2.31-6.1,1.25-9.55-1-3.14-.34-5.69,2.92-7.58,3.87-2.25,5.95-6.12,6.58-10.44A31.09,31.09,0,0,0,723.91,328ZM514.2,192.25c18,8.93,24.6,23.82,20.86,43.34-1,5.18-2.34,10.3-3.53,15.44a14.77,14.77,0,0,0,2-3.57c2.48-6.64,4.76-13.36,7.42-19.93s7.15-11,15.06-10.36c3.06.26,5.24-1.3,6.46-4.13a49.16,49.16,0,0,0,2-4.81c1.24-4.07,2.9-7.69,7.37-9.2,3.74-1.26,7.43-2.68,11.07-4-.09-.29-.94-1.54-.64-2.37,1.79-4.92-.61-9-2.29-13.25-2.38-6-5.13-12-4.37-19.3-4,4.92-3.67,9.41-1.31,14.16a81.82,81.82,0,0,1,4.93,11.25c1.8,5.64,0,8.56-5.67,9.93-6.48,1.56-10.9,5.39-13.17,11.53a8.32,8.32,0,0,1-5.74,5.34,14.94,14.94,0,0,1-18.82-7.86A23.34,23.34,0,0,1,534.6,186c-6.86,4.43-13.7,5.77-21.27,5.66A7,7,0,0,0,514.2,192.25Zm180.1-6.33c3.72,9.08,8.54,17.89,10.84,27.32s2,19.29,2.84,29a12,12,0,0,1-.29,3c-2.62,14.56-9.32,27.54-16,40.5-3.43,6.7-8,12.69-14.61,16.67-4.81,2.87-9.68,5.65-14.55,8.43-3.81,2.18-7.7,3.16-12.15,1.78-3-.94-6.33-1.14-9.51-1.66,7.62,3.71,15.45,3.72,23.25,1.12,13.13-4.37,22.86-12.9,29.62-24.9,1.16-2.05,2.18-3.84,5.14-2.9s4.58,2.53,4.61,5.55c0,2-.52,4-.37,6,.19,2.41.21,5.2,1.43,7.11,2.34,3.66,5.47,6.81,8.27,10.18-2-7.1-4.4-13.87-4.44-21.44,0-3.61.56-6.21,2.75-8.67a46,46,0,0,1,3.87-3.49c4.19-3.74,4.81-9.52,1-15,1.67,9.93-7.14,13-10.88,19.21l-7.86-2.19c7.77-15.53,13.58-31.19,12.54-49.23-1-17.57-3.29-34.11-16-47.53C694,185.08,694.13,185.5,694.3,185.92ZM528,67.83a87.62,87.62,0,0,1,6,26.48c.85,13.78-6.55,22.06-20.39,22.54a61,61,0,0,1-9-.13,16.36,16.36,0,0,1-5.45-2c-4-2-7.64-4.74-11.77-6.31-2.4-.92-5.43-.17-8.18-.17v1c2.16.49,4.36.89,6.49,1.52a40.73,40.73,0,0,1,6.28,2.32c6.68,3.31,9,8.8,5.65,15.46-2.43,4.81-6.26,8.91-9.32,13.42-2.85,4.2-6,8.31-8.1,12.87-1.64,3.48-2,7.6-2.85,11.43l1.4.47c2.59-12.55,10.45-21.81,18.37-31.17,2.92-3.45,4.54-8,7-12.53,4.53-1.36,10.42-2.37,15.61-4.86,7.82-3.75,15.76-4.09,24-3.08,3.55.44,7.08,1,10.63,1.58a113,113,0,0,0-15.76-5.85c-2.8-.84-3.47-2.09-2.46-4.93a26.36,26.36,0,0,0,1.7-8.69c-.11-12.08-5.29-22.6-11.17-32.85C527.17,65.57,527.57,66.71,528,67.83ZM121.9,308.65c8-.18,16-.39,24.06-.54a19.39,19.39,0,0,1,5.56.28,102.87,102.87,0,0,1,12.66,4.26c6.85,2.94,12.39,2.64,16.6-1.41-10,1.53-14.66.66-22.15-6.41-4.53-4.27-8.22-9.59-11.61-14.87-3-4.68-5-10-7.65-14.92-1.47-2.67-3.5-5-7.67-5.39,3,5.92,5.88,11.26,8.46,16.73a44.14,44.14,0,0,1,3.4,9.43c1.18,5.59-1.09,8.44-6.67,9.16l-15,1.94ZM288.28,495.32c11.39-4.54,23.4-5.05,34.78,1a21.69,21.69,0,0,0,18.74,1,10.63,10.63,0,0,0,6.4-6.25,9.8,9.8,0,0,0-2.87,1.2c-7.39,4.15-14.47,4.85-22.09-.16-10.66-7-22.31-6.92-33.61-1.8-11.94,5.42-23.3,4-34.62-1.23-4.11-1.91-8-4.39-11.93-6.61C252.51,492.79,270.55,502.38,288.28,495.32Zm363.9-152.61c-1.35-.25-2.71-.43-4.06-.69-6.19-1.15-9.71.7-11.23,6.77a107.15,107.15,0,0,0-2.09,14,17.65,17.65,0,0,1-10.55,14.78c-1.87.9-3.87,1.53-6,2.34,5.8,3.6,11.34,2.83,15.41-2.18a31.75,31.75,0,0,0,6.8-17.9c.54-6.72,1.78-8.33,8.33-10,1.45-.36,2.94-.55,4.4-.87,5.47-1.17,9.56-4,11.21-9.79C661.09,343,656.85,343.57,652.18,342.71ZM211.76,107.25c-.67,2.24-.85,4.62-1.4,6.9s-1.91,3.35-4.5,3.57c-2.17.18-4.79,1-6.23,2.45a57,57,0,0,0-8.5,10.85c-5.26,9.08-5.24,18.47-.52,27.8-2.76-15.51,1.36-27.51,11.78-34.15,1.91,1.46,3.8,2.83,5.59,4.3,2.66,2.18,5.54,4.18,7.78,6.74s3.69,5.93,5.88,8.63c1.79,2.2,4.16,3.92,6.28,5.85-5.33-11.27-10.52-22.52-24-26.55,1.28-.84,1.75-1.37,2.31-1.49,5.9-1.22,7.89-5.28,8.28-10.81.57-8,4.31-14,11.73-17.38C219,96,213.9,100.07,211.76,107.25Zm248,201c-5.94,4-12.1,1-18.16-1.05,13.58,10.05,24.22,22,27.89,39.76,2.18-7.35.22-13.43-2-19.33-2.76-7.28-2-14.14,1.39-20.9,1.77-3.5,3.61-7,5.53-10.64C469.27,300.42,464.82,304.84,459.73,308.29Zm28.86,107.36c-4,10.7-8,21.35-11.82,32.11a16.22,16.22,0,0,1-7.46,9.35c-8.42,4.82-8.41,6.77-.2,12,.21.14.42.42.61.41,1.28-.05,3,.29,3.7-.39s.48-2.78-.17-3.51c-2.12-2.39-1.46-4.41.43-6.21s4.27-3.34,6.29-5.14a10.5,10.5,0,0,0,2.48-3.26,17.78,17.78,0,0,0,.71-3.64c2-8.75,1.94-18.1,8.17-25.6,1.78-2.15,0-5.35-2.86-6Zm-186-373.29a61.13,61.13,0,0,0-7-3.49c-3-1.2-6-2.86-9.12-3-14.85-.58-28.29,4.86-41.33,11.08-2.47,1.17-3.76,4.81-6,7.91,4.64-3.34,8.07-7.11,12.3-8.59,9.84-3.44,20-6,30.15-8.48a16.44,16.44,0,0,1,15.07,3.6c2.67,2.23,5.19,4.83,8.21,6.42a19.58,19.58,0,0,0,8.78,2.07c3.3,0,6.6-1.11,9.9-1.74,4.81-.93,7.94-3.78,9.72-8.48C323.14,45.46,313.28,48.39,302.57,42.36ZM549.09,63c3.27,3.24,6.41,6.62,9.82,9.71,6.47,5.85,12.94,11.73,19.68,17.26,13.14,10.78,16.48,22.27,10.69,38.14l-5.64,15.5c3.54-5.24,6.38-10.76,9.41-16.2S596.48,116,595.23,110A32.48,32.48,0,0,0,585,92.07c-11.54-10.22-23.53-19.95-35.34-29.88Zm-17.86,65.59c4.44,8.22,4.92,17.05,4,26.28,8.63,1.52,13.45,6.92,15.34,15.68,1.07-1.81,1.65-2.91,2.34-3.93s1.68-2.17,2.48-3.27c2.91-4,1.91-6.54-3-7.67a13,13,0,0,0-2.94-.49c-3.83.05-6-2-7.15-5.43-1.09-3.18-1.83-6.5-3.21-9.55-1.91-4.21-4.28-8.23-6.45-12.33ZM677.06,416.86a27.08,27.08,0,0,1,2.78-3.4c3.7-3.25,7.21-6.86,11.36-9.43s8.18-1.32,11.49,2.13a11.92,11.92,0,0,1,1.4,2.38l.86-.86c-.54-6.28-4.88-9.62-10.13-11.58-5.54-2.06-9.21-5.19-9.76-11.31,0-.09-.41-.13-1.8-.55.37,3.4.2,6.49,1.13,9.21a8.44,8.44,0,0,1-.58,7.37c-2.7,5.12-5,10.42-7.49,15.65ZM238.94,416c-1.93-7.42-2.62-14.61,2-21.55a10.36,10.36,0,0,0,1.19-6.77c-.4-2.59.72-3.59,2.63-4a60.84,60.84,0,0,1,7.76-.9c5.85-.45,10.68-2.39,12.76-5.39-8,2.67-15.9,4.84-24,1.54-3.07,8.18-8,9.32-21.17,4.75,4.34,3.73,8.46,5.86,13.57,5.67,4.33-.17,4.94.84,4,5a81.65,81.65,0,0,0-2.1,13.94c-.15,3.89.5,7.94,4.15,11.35C239.39,418.07,239.21,417,238.94,416Zm426-144.65c1.64,1.57,3.06-.09,2.63-1.78-1.76-6.8,2.28-11.58,5.27-16.85,6.39-11.28,9.32-23.37,7.87-36.37a8,8,0,0,0-.3,2.17,59.08,59.08,0,0,1-14.18,38c-2,2.36-4.52,4.26-7.58,7.08C660.43,265.88,662.39,268.91,664.92,271.34ZM424.45,183.5c-4,1-8.11,1.8-12.07,3-4.31,1.3-4.68,1.35-5.52-3-1-5.14-4.55-7.59-9.4-9.77,8.09,9.48,9.3,14.75,6.68,26.45a84.26,84.26,0,0,0-1.06,8.57l1,.43c3.41-11.17,6.42-22.68,21.2-23.88C425,184.71,424.74,184.11,424.45,183.5Zm255.3-9.28c3.77,8.2.91,14.84-3,21.19,7,5.93,13.16,12,14.54,21.35A1.83,1.83,0,0,0,692,218c3,1.69,6.11,3.31,9.17,4.95l1.18-1.24a38.81,38.81,0,0,0-4.14-2.49c-4-1.85-5.15-5.3-6.1-9.32-1.56-6.52-5.87-11.35-11.31-15C684.65,184.54,684.49,179.66,679.75,174.22ZM210,452.47c-.26,2.75-.52,5.46-.83,8.68l6.95-10.39c-15.51-5.46-24.54-17-29.17-32.51C187.6,431.5,195.07,442.5,210,452.47ZM309.61,25.91c5.29-5.65,11.71-5.74,18.61-4.25,7.39,1.59,14.81,3,23.19,4.71-12.34-7.9-24.53-10.49-37.73-6.07a13.31,13.31,0,0,0-9.07,8.94C306.88,27.76,308.51,27.08,309.61,25.91Zm37.24-7.46c5-1,9.9-2.25,14.91-3,11.47-1.84,22.74-2.26,32.73,7.16-2.38-6.2-6.72-8.73-11.83-9.74a64.22,64.22,0,0,0-29.2,1.26c-2.49.66-4.77,2.17-7.14,3.3Zm-274.2,280c-2.36-5.43-4.57-10.94-7.27-16.19-.55-1.06-3.37-2-4.45-1.51-1.75.81-3.38,2.74-1.85,5.2,2.18,3.47,4.27,7,6.64,10.34,1.57,2.22,3.59,4.09,6.8,3.39C72.58,299.16,72.77,298.74,72.65,298.46ZM81,146.22c4.54-7.36,12.06-7.85,19.25-9.19,1.66-.31,3.81-.83,4.62-2a10.49,10.49,0,0,0,1.46-5.94c0-1.08-1.63-2.12-2.53-3.18-1.39,1.29-2.79,2.58-4.16,3.89-.18.16-.22.46-.38.63-1.57,1.6-2.94,3.49-4.77,4.7-2.25,1.48-5.06,2.13-7.31,3.61a83.58,83.58,0,0,0-7.24,6ZM303.69,271.94a1.45,1.45,0,0,0,.82.69c3.24.76,6.46,1.64,9.74,2.1.86.12,1.91-1.09,2.16-1.25-3.32-2.16-6.56-3.86-9.29-6.17s-4.68-5.15-7.12-7.64a61.65,61.65,0,0,0-4.81-4.05C298.18,261.37,300.92,266.66,303.69,271.94ZM727.78,441.23c3.42-7.56,6.27-15.38,9.12-23.19.58-1.6.08-3.59.08-5.35-2.62,6.57-5.43,12.77-7.57,19.2-2.34,7-5.67,12.95-12.82,16.16C721.79,448,725.79,445.62,727.78,441.23ZM627.54,127.52c-2.14-2.91-5.61-4.83-8.48-7.2l-.75.83A30.52,30.52,0,0,1,629.4,137.6a4.59,4.59,0,0,0,1.42,2c3.43,3,6.91,6,10.73,9.27C636.74,141.43,632.46,134.23,627.54,127.52ZM387.73,25.88l-.18,1.06,30.35,4.6C409,23.07,397.91,27.05,387.73,25.88Zm56.11,63.43c6,3.21,11.62,7.12,17.14,10.56-6.63-9-21.47-17.12-36.83-19.65C431.23,83.45,437.72,86,443.84,89.31Zm-247-34.12c2.68,3.57,5.56,3.49,8.34,2.84,8.69-2,17.35-4.28,26-6.45C219.42,49.91,209.28,58.05,196.81,55.19ZM595.48,214.38c2.09-6.41-.45-11.43-6.79-13.8ZM673,193.92c-2.73-3.86-8.08-4.85-14.33-2.62ZM228.4,184.73l-10.6,1.87.18,1L228.56,186Z"/></g></svg>